<?xml version="1.0" standalone="no"?>
<!DOCTYPE svg PUBLIC "-//W3C//DTD SVG 20010904//EN"
 "http://www.w3.org/TR/2001/REC-SVG-20010904/DTD/svg10.dtd">
<svg version="1.0" xmlns="http://www.w3.org/2000/svg"
 width="96.000000pt" height="96.000000pt" viewBox="0 0 96.000000 96.000000"
 preserveAspectRatio="xMidYMid meet">
<metadata>
Created by potrace 1.14, written by Peter Selinger 2001-2017
</metadata>
<g transform="translate(0.000000,96.000000) scale(0.100000,-0.100000)"
fill="#000000" stroke="none">
<path d="M176 929 l-37 -34 47 -38 c44 -35 48 -36 65 -21 11 10 25 14 36 9 17
-6 17 -7 -1 -21 -11 -8 -34 -14 -52 -14 -24 0 -39 -8 -58 -31 -14 -17 -26 -37
-26 -44 0 -7 -4 -15 -8 -17 -16 -6 -51 -74 -44 -84 4 -6 22 -19 40 -28 31 -16
32 -18 17 -39 -21 -30 -19 -83 5 -107 46 -46 130 -9 130 58 0 36 -30 72 -60
72 -26 0 -25 12 6 63 33 51 33 51 100 66 116 26 126 125 19 207 -26 20 -51 29
-90 32 -49 4 -55 2 -89 -29z m141 -10 c57 -27 85 -68 81 -116 -3 -37 -4 -37
-83 -65 -66 -23 -85 -25 -107 -16 -16 6 -28 13 -28 17 1 20 33 43 66 48 56 8
74 20 74 48 0 34 -33 50 -71 35 -25 -11 -32 -10 -49 5 -27 25 -25 34 13 50 43
19 54 18 104 -6z m-107 -264 c0 -5 -7 -18 -14 -28 -13 -17 -16 -17 -45 -2 -31
15 -31 16 -16 46 l16 30 29 -18 c17 -9 30 -22 30 -28z"/>
<path d="M603 719 c-27 -10 -53 -47 -53 -77 0 -33 43 -72 80 -72 38 0 80 39
80 73 0 52 -59 94 -107 76z"/>
<path d="M400 547 c-30 -16 -28 -35 7 -89 36 -53 61 -49 87 15 15 36 18 52 10
65 -14 21 -71 26 -104 9z"/>
<path d="M767 383 c-80 -139 -90 -174 -60 -224 13 -21 14 -32 6 -40 -18 -18
-36 1 -29 32 5 26 2 29 -47 48 -29 10 -56 16 -60 12 -18 -17 -19 -79 -2 -116
37 -76 152 -118 222 -80 43 24 49 50 29 131 -13 51 -14 69 -5 80 6 8 8 14 3
14 -5 0 -4 4 1 8 18 12 45 61 45 79 0 10 -17 28 -40 41 -41 23 -56 27 -63 15z
m54 -38 c24 -13 28 -19 19 -35 -15 -28 -26 -32 -54 -19 -29 14 -31 21 -14 49
15 24 12 24 49 5z m-53 -101 c12 -8 22 -25 22 -37 0 -12 7 -47 15 -77 13 -48
13 -57 0 -77 -48 -73 -215 -1 -215 93 0 24 4 34 16 34 29 0 54 -21 54 -45 0
-31 36 -58 62 -44 22 12 23 44 4 90 -9 22 -11 42 -5 57 10 26 17 27 47 6z"/>
</g>
</svg>
