<?xml version="1.0" standalone="no"?>
<!DOCTYPE svg PUBLIC "-//W3C//DTD SVG 20010904//EN"
 "http://www.w3.org/TR/2001/REC-SVG-20010904/DTD/svg10.dtd">
<svg version="1.0" xmlns="http://www.w3.org/2000/svg"
 width="512.000000pt" height="512.000000pt" viewBox="0 0 512.000000 512.000000"
 preserveAspectRatio="xMidYMid meet">
<metadata>
Created by potrace 1.14, written by Peter Selinger 2001-2017
</metadata>
<g transform="translate(0.000000,512.000000) scale(0.100000,-0.100000)"
fill="#000000" stroke="none">
<path d="M4 4570 c-1 -22 2 -37 7 -34 5 3 9 14 9 25 0 10 7 19 15 19 8 0 15 5
15 12 0 9 3 9 12 0 9 -9 10 -15 2 -20 -7 -4 -9 -21 -7 -39 4 -27 10 -33 30
-33 23 0 25 3 19 35 -4 22 -3 35 4 35 5 0 10 7 10 15 0 24 27 18 34 -7 9 -35
7 -68 -4 -68 -5 0 -9 -8 -8 -17 3 -37 -2 -63 -13 -63 -7 0 -9 10 -5 26 5 17 3
23 -4 19 -5 -3 -10 -17 -10 -31 0 -17 -5 -24 -20 -24 -11 0 -20 -6 -20 -12 0
-7 -3 -23 -6 -35 -5 -17 -2 -23 10 -23 9 0 16 -4 16 -10 0 -5 6 -10 13 -10 17
0 42 -45 33 -59 -4 -6 -2 -11 4 -11 7 0 10 -18 8 -50 -3 -49 -11 -63 -21 -37
-3 6 -6 2 -6 -10 -1 -13 -7 -23 -15 -23 -16 0 -29 27 -20 41 3 5 0 9 -6 9 -8
0 -9 -15 -4 -47 6 -40 5 -45 -10 -40 -9 4 -16 3 -17 -1 -3 -20 -4 -124 -1
-109 2 9 8 17 14 17 5 0 8 -7 4 -15 -3 -9 0 -15 9 -15 10 0 15 -10 15 -27 1
-30 29 -79 31 -52 0 8 7 -6 14 -31 14 -42 11 -90 -4 -90 -4 0 -6 14 -3 30 2
17 0 30 -5 30 -5 0 -10 -15 -11 -32 -2 -35 -20 -102 -21 -80 -1 7 -10 23 -22
35 -19 20 -20 21 -13 2 4 -11 11 -26 17 -32 6 -9 4 -15 -7 -19 -22 -8 -29 -1
-28 33 0 37 -7 46 -24 32 -15 -12 -20 -54 -5 -45 5 3 11 0 14 -7 6 -17 -3 -67
-13 -67 -4 0 -8 -47 -9 -105 -2 -89 1 -105 14 -105 9 0 18 6 21 14 10 25 36 6
30 -20 -5 -17 -2 -24 8 -24 20 0 28 -28 14 -53 -13 -22 -13 -22 -16 5 -4 30
-32 48 -32 20 0 -9 4 -24 10 -32 6 -9 5 -17 -3 -22 -9 -5 -9 -10 1 -20 6 -6
12 -17 12 -23 0 -5 -7 -2 -14 8 -18 23 -46 12 -44 -18 1 -13 5 -22 8 -20 4 2
18 6 33 9 28 5 38 -11 12 -20 -8 -4 -15 -10 -15 -16 0 -5 5 -6 11 -2 8 4 8 0
0 -15 -13 -24 -22 -26 -39 -9 -9 9 -12 -23 -12 -144 0 -122 3 -158 14 -167 11
-10 15 -8 19 6 3 10 5 4 6 -14 1 -26 -2 -30 -19 -26 -12 3 -20 0 -20 -6 0 -7
4 -9 10 -6 5 3 10 2 10 -4 0 -5 -5 -13 -10 -16 -6 -3 -10 -17 -10 -30 0 -20 7
-25 34 -31 19 -3 39 -3 45 1 6 3 11 1 11 -5 0 -6 -7 -13 -15 -16 -8 -4 -15
-10 -15 -16 0 -5 5 -6 11 -2 12 7 -1 -18 -24 -48 -18 -23 -27 -23 -27 1 0 11
-4 23 -10 26 -6 4 -10 -16 -10 -53 0 -56 2 -60 25 -64 22 -5 26 -1 35 32 6 21
7 46 4 56 -5 16 -4 16 5 4 9 -13 11 -13 11 0 1 11 4 10 15 -4 8 -11 16 -17 16
-13 1 4 2 11 3 16 0 5 4 12 8 16 3 4 5 -13 3 -37 -3 -58 -3 -58 -16 -58 -6 0
-9 9 -6 20 6 23 -10 37 -25 22 -7 -7 -6 -17 1 -30 9 -18 6 -24 -20 -45 -35
-27 -31 -52 7 -44 32 6 53 -9 25 -18 -11 -3 -21 -11 -21 -16 0 -6 5 -7 11 -3
8 5 8 1 0 -14 -13 -25 -31 -38 -31 -23 0 6 -6 11 -14 11 -20 0 -31 21 -16 30
13 8 6 30 -10 30 -13 0 -10 -92 4 -109 8 -11 8 -15 -1 -18 -17 -6 -17 -45 0
-62 9 -11 9 -13 0 -7 -10 5 -13 -6 -12 -46 1 -29 4 -43 6 -30 6 30 39 29 45
-2 3 -13 -1 -32 -9 -42 -19 -26 -16 -42 8 -49 21 -7 21 -8 -8 -34 -35 -30 -46
-54 -31 -69 7 -7 6 -16 -1 -30 -8 -15 -11 -248 -11 -771 l0 -751 2560 0 2560
0 0 679 c0 578 -2 680 -14 684 -9 3 -12 14 -9 25 3 12 -1 22 -11 25 -9 4 -16
3 -16 -1 0 -4 -8 -12 -19 -19 -15 -9 -26 -8 -54 7 -19 10 -62 22 -96 26 -33 3
-61 11 -61 15 0 14 -28 11 -32 -3 -3 -7 -14 -1 -29 16 -13 16 -29 34 -36 41
-13 14 -71 14 -92 0 -9 -5 -17 -2 -22 7 -5 9 -19 14 -34 13 -14 -2 -27 0 -30
5 -3 4 -13 6 -24 3 -16 -4 -19 4 -24 57 -4 34 -4 66 -1 72 3 5 7 69 9 142 4
121 2 136 -19 182 -26 55 -69 191 -68 214 0 8 -4 29 -8 45 -5 17 -11 53 -13
80 -7 70 -46 185 -63 185 -8 0 -11 6 -8 15 4 8 1 15 -5 15 -12 0 -61 80 -61
101 0 8 -15 45 -34 84 -33 67 -77 202 -91 275 -13 74 -28 136 -36 155 -5 11
-11 45 -13 75 -2 30 -7 81 -11 113 -7 51 -6 57 10 57 14 0 15 3 5 14 -6 8 -18
12 -25 9 -9 -3 -16 5 -20 24 -4 15 -13 48 -22 73 -15 45 -24 95 -43 240 -11
86 -22 151 -46 268 l-16 82 -1402 0 -1403 0 -16 -107 c-9 -60 -19 -139 -22
-178 -7 -78 -10 -98 -25 -170 -6 -27 -13 -66 -16 -85 -3 -19 -10 -44 -15 -55
-8 -19 -12 -74 -22 -315 -2 -52 -11 -120 -21 -150 -51 -159 -82 -230 -102
-230 -8 0 -14 -9 -14 -20 0 -11 -4 -20 -10 -20 -6 0 -6 -9 0 -26 7 -18 6 -33
-5 -54 -8 -16 -15 -38 -15 -49 0 -28 -26 -104 -61 -179 -16 -35 -29 -67 -29
-73 0 -12 -22 -52 -35 -61 -5 -4 -7 -8 -3 -8 4 0 -1 -16 -12 -35 -27 -48 -52
-175 -44 -222 11 -65 12 -407 2 -420 -5 -7 -7 -17 -4 -22 7 -11 -6 -24 -52
-52 -18 -10 -37 -31 -42 -47 -6 -15 -15 -35 -20 -45 -6 -10 -8 -22 -5 -27 6
-10 -19 -14 -63 -10 -13 1 -46 -4 -74 -10 -41 -10 -49 -16 -45 -31 3 -11 0
-19 -6 -20 -66 -3 -118 -8 -144 -14 -27 -6 -33 -4 -33 10 0 12 6 16 20 12 17
-4 20 0 20 33 0 21 5 40 12 42 7 3 13 20 13 39 0 24 5 35 18 37 10 2 17 -3 17
-12 0 -10 -6 -13 -15 -10 -8 4 -15 1 -15 -5 0 -6 7 -11 15 -11 8 0 15 -6 15
-14 0 -20 -17 -29 -24 -14 -3 7 -3 -3 0 -22 8 -45 15 -52 50 -48 29 3 62 47
44 58 -10 6 -8 29 4 49 6 10 2 20 -14 33 -19 15 -22 23 -13 36 7 13 7 20 -2
29 -13 12 -8 73 7 73 5 0 7 4 4 9 -3 5 1 11 9 15 9 3 15 17 14 38 -1 18 -3 25
-6 15 -3 -11 -11 -16 -19 -13 -8 3 -14 1 -14 -4 0 -6 -5 -10 -11 -10 -14 0 -8
34 19 118 11 34 16 62 11 62 -5 0 -9 12 -9 26 0 22 4 25 28 22 26 -3 27 -2 27
45 0 27 -3 51 -7 53 -4 3 -5 19 -2 37 l5 32 -15 -30 -14 -30 -1 26 c-1 16 -7
26 -17 26 -11 0 -14 -7 -9 -24 3 -13 1 -32 -5 -43 -15 -27 -40 -26 -39 3 0 24
17 68 19 52 1 -5 6 1 11 14 7 18 6 26 -7 35 -14 11 -14 13 0 25 15 13 15 15 0
32 -9 10 -14 25 -11 32 12 32 -35 42 -55 13 -14 -21 -8 25 7 54 9 17 11 30 5
30 -18 0 -12 78 8 92 11 7 21 20 24 28 5 12 7 12 13 -4 5 -11 3 -21 -4 -26 -7
-4 -11 -16 -10 -26 2 -11 0 -25 -4 -32 -5 -7 -10 -24 -13 -37 -3 -20 0 -25 15
-25 14 0 18 -5 14 -20 -5 -19 4 -25 35 -21 15 2 16 -16 1 -21 -5 -2 -7 -11 -4
-20 4 -9 12 -14 20 -12 17 7 28 76 13 85 -13 8 -15 50 -5 91 6 23 12 26 36 23
25 -3 27 -1 23 22 -4 19 -1 24 9 21 32 -11 11 -79 -21 -71 -16 4 -19 2 -14
-12 4 -10 1 -21 -7 -27 -10 -6 -7 -7 10 -3 16 5 21 4 17 -4 -16 -26 7 -30 30
-6 13 14 24 23 24 20 0 -3 6 0 14 7 8 7 11 17 8 23 -12 19 -9 43 5 38 8 -3 12
-12 9 -19 -7 -19 9 -17 25 3 12 14 12 16 0 8 -11 -6 -13 -3 -9 13 5 18 2 21
-16 18 -21 -4 -22 0 -25 72 -2 64 0 74 12 64 7 -7 17 -9 20 -5 4 3 7 2 7 -4 0
-6 -7 -13 -15 -17 -15 -5 -12 -18 13 -56 2 -3 12 6 24 20 11 14 17 20 15 15
-3 -6 -2 -17 3 -25 6 -9 9 5 8 39 0 39 4 57 15 63 17 9 50 68 38 68 -4 0 -7
10 -5 23 1 12 3 26 3 30 1 5 7 5 14 1 8 -5 8 -2 -2 9 -21 26 -38 20 -45 -14
-8 -42 -25 -27 -23 21 1 25 6 40 14 40 7 0 13 9 13 20 0 41 36 18 46 -28 6
-31 14 -23 15 14 1 34 2 36 9 14 7 -23 8 -22 9 11 1 20 10 47 20 60 18 23 19
53 5 99 -5 13 -6 13 -15 0 -7 -11 -8 -6 -3 15 8 37 14 45 14 19 0 -16 2 -15
17 6 10 14 17 29 15 34 -2 5 5 17 14 27 14 16 15 24 6 45 -15 32 -15 35 3 28
10 -4 15 0 15 11 0 9 -4 14 -8 11 -5 -3 -9 1 -9 9 0 10 10 15 28 15 15 0 30 3
32 8 3 4 -11 7 -31 7 -32 -1 -38 -5 -46 -30 -4 -17 -12 -38 -17 -47 -7 -14 -5
-18 8 -18 14 0 13 -4 -7 -25 -28 -30 -35 -26 -32 19 2 25 -5 42 -23 63 l-26
28 3 -30 c1 -17 -1 -36 -6 -43 -4 -8 -1 -24 10 -39 11 -17 13 -28 6 -31 -7 -2
-7 -13 -2 -33 10 -34 -4 -84 -20 -74 -6 4 -8 11 -5 16 9 13 -8 11 -30 -4 -11
-9 -19 -29 -20 -52 -2 -22 -10 -44 -19 -51 -15 -11 -15 -12 0 -18 24 -9 8 -65
-29 -100 -18 -17 -33 -43 -36 -63 -6 -36 -26 -46 -26 -14 0 11 -3 23 -7 27 -5
4 -8 1 -8 -8 0 -8 -9 -25 -20 -38 -22 -25 -26 -40 -10 -40 6 0 10 -7 10 -16 0
-8 -5 -12 -10 -9 -7 4 -9 -3 -4 -22 12 -55 16 -63 28 -63 8 0 19 -6 25 -14 14
-17 -8 -29 -29 -16 -14 9 -40 -11 -40 -30 0 -6 -6 -10 -12 -8 -15 5 -24 48
-10 48 5 0 9 27 8 59 -1 50 -5 64 -26 83 -13 13 -29 22 -34 20 -4 -1 -6 11 -4
28 3 16 1 30 -4 30 -11 0 2 74 13 78 5 2 9 10 9 18 0 8 5 14 10 14 6 0 10 11
10 25 0 14 5 25 10 25 6 0 10 -7 10 -15 0 -19 7 -19 27 0 11 11 12 22 5 43 -9
27 -9 27 -16 5 -4 -14 -15 -23 -27 -23 -10 0 -19 -3 -19 -7 0 -5 -12 -13 -26
-20 l-26 -12 7 40 c5 31 3 40 -9 45 -9 3 -16 15 -16 25 0 26 18 24 22 -1 2
-12 7 -22 12 -23 13 -3 36 92 25 99 -11 7 -1 68 12 72 5 2 7 7 4 12 -3 4 2 13
10 20 8 7 15 24 15 39 0 14 -4 21 -8 15 -11 -18 -52 -28 -52 -13 0 21 24 79
32 79 4 0 8 17 8 38 0 27 3 33 10 22 13 -21 24 -5 11 17 -6 10 -11 14 -11 9 0
-5 -7 -3 -15 4 -13 10 -15 9 -16 -11 -1 -13 0 -36 1 -51 2 -30 -11 -41 -35
-32 -13 5 -15 14 -11 38 4 22 3 27 -4 16 -5 -8 -10 -25 -10 -37 0 -13 -5 -23
-10 -23 -6 0 -8 10 -6 23 16 77 17 102 5 90 -22 -22 -30 -14 -25 22 5 28 3 35
-10 35 -13 0 -10 5 8 20 19 14 24 26 20 45 -2 14 -9 28 -14 31 -5 3 -4 12 3
20 19 23 61 -69 54 -116 -4 -26 -3 -31 4 -20 6 8 11 23 11 33 0 9 5 17 11 17
20 0 40 30 34 50 -4 11 -2 20 4 20 14 0 14 -32 -1 -67 -6 -15 -10 -32 -9 -37
1 -5 -4 -13 -11 -17 -10 -7 -9 -9 4 -9 11 0 15 -5 12 -15 -5 -12 0 -12 26 -5
35 10 51 20 32 20 -7 0 -12 14 -12 31 0 16 4 28 9 25 5 -3 11 1 15 9 11 30 26
14 26 -30 0 -25 -4 -45 -9 -45 -5 0 -7 -10 -3 -22 4 -17 2 -20 -11 -15 -26 10
-20 -8 8 -23 18 -9 25 -22 25 -42 0 -15 -4 -28 -10 -28 -5 0 -10 12 -10 26 0
14 -4 23 -10 19 -6 -3 -10 1 -10 9 0 9 -5 16 -11 16 -6 0 -9 -7 -5 -15 5 -13
-3 -19 -24 -17 -3 0 -10 -10 -17 -23 -9 -21 -7 -28 12 -49 13 -14 26 -22 29
-19 3 4 6 -1 6 -10 0 -9 7 -17 15 -17 8 0 14 -8 13 -17 -5 -59 3 -113 16 -113
8 0 17 -8 19 -17 3 -11 5 -7 6 10 1 16 7 27 15 27 16 0 29 53 30 125 1 36 5
49 14 47 8 -1 11 2 7 8 -4 6 -2 16 3 23 5 7 12 26 16 42 5 25 4 28 -6 14 -19
-23 -58 -34 -58 -16 0 18 30 80 44 90 7 5 5 12 -6 21 -11 8 -18 27 -18 46 0
29 2 32 24 26 21 -5 25 -1 34 37 6 23 14 62 18 87 5 37 4 43 -7 33 -22 -21
-28 -15 -24 23 3 22 1 33 -5 29 -19 -12 -10 14 9 27 19 14 23 40 7 55 -4 4
-11 1 -16 -7 -7 -11 -11 -11 -24 -1 -17 14 -22 66 -8 75 16 9 12 66 -4 66 -8
0 -14 -7 -14 -15 0 -8 -4 -15 -10 -15 -12 0 -34 40 -26 48 3 3 6 -1 6 -9 0
-11 2 -11 10 1 5 8 10 11 10 7 0 -4 10 -2 23 4 12 6 19 8 15 4 -4 -4 4 -22 17
-40 26 -33 33 -61 13 -49 -6 4 -8 3 -4 -4 3 -6 1 -12 -6 -15 -7 -2 -2 -2 12 0
14 3 28 10 32 16 4 6 4 -7 1 -29 -4 -30 -1 -45 12 -58 13 -12 16 -27 12 -54
-5 -34 -4 -35 6 -11 7 14 25 38 41 54 27 27 29 28 42 10 18 -25 18 -39 -1 -31
-8 3 -15 1 -15 -4 0 -6 -7 -10 -16 -10 -8 0 -12 -5 -8 -11 3 -6 0 -15 -7 -20
-11 -7 -10 -9 4 -9 11 0 17 -8 17 -25 0 -18 -4 -23 -15 -19 -16 6 -16 6 -19
-73 -1 -32 2 -39 12 -31 9 8 12 6 12 -6 0 -9 5 -16 10 -16 6 0 10 -12 10 -27
0 -31 25 -67 53 -76 9 -4 17 -13 17 -22 0 -8 7 -15 15 -15 11 0 14 10 11 40
-2 22 -6 43 -9 46 -5 5 3 85 9 93 4 5 30 -22 37 -39 3 -8 5 3 4 25 -1 22 -6
44 -12 48 -6 6 -6 10 2 14 15 6 18 53 3 53 -5 0 -10 5 -10 11 0 6 9 8 23 4
l22 -7 -21 16 c-13 9 -24 33 -29 58 -5 29 -9 36 -12 23 -7 -29 -23 -43 -23
-20 -1 19 -1 19 -11 3 -5 -10 -15 -18 -20 -18 -6 0 -7 5 -4 10 3 6 3 16 -2 23
-11 17 -12 66 -2 73 5 3 9 13 9 22 0 10 10 23 22 31 19 12 23 11 36 -5 13 -19
13 -19 10 0 -2 10 3 21 11 24 8 3 11 0 7 -7 -4 -6 -2 -11 3 -11 6 0 11 9 11
20 0 21 15 27 25 10 10 -16 35 8 28 26 -3 7 -9 11 -14 8 -5 -3 -20 7 -33 21
-19 20 -24 35 -21 63 1 20 3 38 4 40 1 1 10 -2 20 -7 18 -10 22 -6 31 39 1 2
-3 6 -9 8 -6 2 -11 -6 -11 -17 0 -30 -14 -26 -27 9 -10 26 -16 30 -51 30 -26
0 -42 -5 -46 -15 -3 -8 -15 -15 -26 -15 -11 0 -20 7 -20 15 0 11 -11 15 -37
15 -28 0 -34 -3 -23 -10 11 -7 6 -9 -17 -7 -18 1 -33 5 -33 10 0 4 -5 7 -11 7
-6 0 -9 -6 -6 -13 3 -8 1 -20 -4 -28 -6 -10 -9 -7 -9 14 0 17 -5 27 -15 27 -8
0 -15 -5 -15 -11 0 -8 -4 -8 -12 -2 -8 5 -121 10 -258 11 l-245 1 -1 -39z
m309 -13 c-4 -21 -8 -25 -14 -15 -6 9 -9 4 -9 -16 0 -28 1 -29 19 -12 11 10
17 24 14 32 -3 8 0 14 6 14 12 0 14 -20 5 -44 -3 -9 -10 -13 -15 -10 -17 10
-9 -10 12 -32 13 -14 19 -30 15 -39 -8 -21 -26 -10 -26 15 0 13 -5 17 -15 14
-19 -8 -20 -44 -1 -44 24 0 30 -21 12 -38 -16 -16 -17 -16 -11 3 6 16 5 17 -4
5 -8 -11 -11 -12 -11 -2 0 7 -5 10 -11 6 -8 -5 -7 -9 1 -14 16 -10 23 -60 8
-60 -5 0 -8 -6 -6 -12 3 -7 -2 -19 -9 -27 -8 -7 -11 -16 -8 -19 3 -4 10 0 15
8 8 13 10 12 10 -3 0 -10 5 -15 10 -12 6 4 10 -9 10 -32 0 -22 5 -44 12 -51 6
-6 9 -15 5 -18 -4 -4 -16 4 -27 17 l-20 24 2 -30 c3 -59 -2 -85 -17 -85 -8 0
-15 -4 -15 -10 0 -18 -18 -10 -23 10 -4 17 -2 20 13 15 13 -4 19 1 22 20 6 29
1 32 -19 8 -8 -11 -11 -12 -7 -3 7 13 5 13 -9 2 -9 -8 -21 -11 -27 -7 -12 7
-14 35 -2 35 5 0 9 6 9 13 1 26 12 69 21 80 12 15 12 47 0 47 -12 0 2 73 16
82 6 4 7 8 2 8 -6 0 -3 6 6 13 9 6 18 24 20 40 6 29 -6 37 -16 11 -3 -8 -10
-12 -16 -9 -5 3 -10 1 -10 -4 0 -6 -4 -11 -10 -11 -22 0 0 86 26 102 7 5 10
18 8 30 -4 17 -1 15 10 -7 l14 -30 1 31 c1 32 20 59 32 47 4 -5 5 -21 2 -36z
m62 -6 c-10 -16 -25 -3 -25 22 0 20 1 20 16 5 9 -9 13 -21 9 -27z m-145 19 c0
-5 -4 -10 -10 -10 -5 0 -10 5 -10 10 0 6 5 10 10 10 6 0 10 -4 10 -10z m180 1
c0 -6 -4 -13 -10 -16 -5 -3 -10 1 -10 9 0 9 5 16 10 16 6 0 10 -4 10 -9z m195
-29 c-2 -9 -4 -19 -4 -21 -1 -3 -6 0 -12 6 -13 13 -4 47 10 39 5 -4 8 -14 6
-24z m-42 -6 c7 3 5 -1 -5 -8 -10 -9 -15 -24 -12 -43 2 -17 1 -23 -2 -15 -2 9
-14 22 -26 29 -18 11 -20 11 -15 -4 4 -9 3 -13 -2 -10 -5 3 -11 -3 -14 -12 -2
-10 -4 -3 -4 15 0 30 3 33 25 29 19 -4 26 0 30 16 3 12 7 16 10 9 2 -7 9 -10
15 -6z m127 -10 c0 -8 6 -17 13 -20 10 -5 10 -7 0 -12 -18 -8 -16 -24 3 -24 9
0 14 -6 11 -12 -2 -7 -10 -12 -16 -10 -7 1 -11 -5 -9 -14 2 -9 -2 -19 -9 -21
-7 -3 -10 3 -6 15 2 11 -1 23 -9 27 -7 5 -10 5 -6 1 3 -4 2 -21 -4 -38 -10
-28 -12 -29 -21 -12 -15 27 -18 66 -5 81 6 7 7 13 2 13 -11 0 37 39 49 40 4 0
7 -6 7 -14z m85 -7 c4 -5 -1 -20 -12 -32 -13 -15 -13 -18 -2 -9 14 10 17 9 22
-10 8 -29 2 -36 -27 -31 -22 5 -45 43 -25 43 5 0 9 8 9 18 0 30 22 43 35 21z
m-576 -38 c-3 -6 -10 -7 -18 -2 -7 5 -10 14 -6 21 9 14 29 -2 24 -19z m194
-34 c19 -47 22 -84 7 -89 -15 -5 0 -47 19 -50 12 -3 10 -5 -7 -10 -12 -3 -20
-2 -16 3 3 5 -4 9 -15 9 -12 0 -21 -7 -21 -15 0 -8 -5 -15 -11 -15 -5 0 -7 5
-3 12 14 22 11 79 -3 74 -20 -8 -15 8 7 24 21 15 26 45 11 70 -10 14 -6 30 7
30 4 0 15 -19 25 -43z m427 9 c0 -3 -4 -8 -10 -11 -5 -3 -10 -1 -10 4 0 6 5
11 10 11 6 0 10 -2 10 -4z m-650 -45 c0 -10 -3 -21 -6 -24 -13 -12 -21 3 -17
28 6 27 23 24 23 -4z m440 11 c0 -13 -12 -22 -22 -16 -10 6 -1 24 13 24 5 0 9
-4 9 -8z m140 -2 c0 -5 -4 -10 -10 -10 -5 0 -10 5 -10 10 0 6 5 10 10 10 6 0
10 -4 10 -10z m-299 -37 c12 -14 12 -16 -1 -9 -10 5 -9 3 2 -6 11 -10 14 -19
7 -29 -7 -11 -9 -11 -9 4 0 10 -4 15 -10 12 -6 -4 -10 5 -10 19 0 31 3 32 21
9z m259 -7 c0 -8 -4 -18 -10 -21 -5 -3 -10 3 -10 14 0 12 5 21 10 21 6 0 10
-6 10 -14z m-580 -20 c0 -3 -4 -8 -10 -11 -5 -3 -10 -1 -10 4 0 6 5 11 10 11
6 0 10 -2 10 -4z m210 -28 c0 -17 -20 -17 -29 1 -16 29 -14 33 9 19 11 -7 20
-16 20 -20z m320 -24 c0 -8 -4 -14 -10 -14 -5 0 -10 9 -10 21 0 11 5 17 10 14
6 -3 10 -13 10 -21z m-217 -35 c-3 -24 -2 -29 9 -23 10 6 10 4 -1 -9 -12 -15
-11 -17 5 -17 16 0 17 -2 4 -10 -11 -8 -12 -12 -3 -18 7 -4 12 -16 11 -27 0
-11 3 -32 7 -47 4 -17 3 -28 -3 -28 -5 0 -12 10 -15 22 -8 28 -16 20 -21 -21
-4 -37 -15 -53 -17 -25 -1 10 -3 31 -5 47 -1 15 1 25 5 23 4 -3 8 0 9 7 0 7 4
23 8 37 5 21 4 23 -7 13 -22 -21 -31 -15 -28 20 2 21 -1 31 -9 30 -16 -4 -15
5 1 21 7 7 18 11 26 8 8 -3 11 0 7 6 -3 6 0 13 6 15 7 3 14 6 15 6 1 1 -1 -13
-4 -30z m44 -26 c-3 -10 -5 -4 -5 12 0 17 2 24 5 18 2 -7 2 -21 0 -30z m2236
-33 c-7 -33 -19 -45 -28 -29 -5 8 -4 10 3 5 8 -5 12 0 12 13 0 12 -5 21 -10
21 -6 0 -5 8 2 20 16 25 30 6 21 -30z m-2216 18 c-3 -8 -6 -5 -6 6 -1 11 2 17
5 13 3 -3 4 -12 1 -19z m-317 -14 c0 -8 -4 -14 -10 -14 -5 0 -10 9 -10 21 0
11 5 17 10 14 6 -3 10 -13 10 -21z m193 -20 c-7 -19 -23 -7 -23 18 0 17 3 18
14 8 8 -6 12 -18 9 -26z m2368 -7 c-10 -9 -11 -8 -5 6 3 10 9 15 12 12 3 -3 0
-11 -7 -18z m-2033 -21 c3 -12 -1 -17 -10 -14 -7 3 -15 13 -16 22 -3 12 1 17
10 14 7 -3 15 -13 16 -22z m32 4 c0 -5 -2 -10 -4 -10 -3 0 -8 5 -11 10 -3 6
-1 10 4 10 6 0 11 -4 11 -10z m-348 -26 c-2 -10 -4 -33 -5 -51 -3 -33 -16 -58
-18 -32 0 8 -1 32 -3 54 -1 22 0 44 2 48 7 15 27 0 24 -19z m138 2 c0 -8 -4
-17 -9 -21 -12 -7 -24 12 -16 25 9 15 25 12 25 -4z m2224 -4 c2 -4 1 -14 -5
-22 -5 -8 -9 -13 -10 -10 0 3 -2 13 -4 23 -3 17 10 24 19 9z m-2444 -12 c0 -5
-4 -10 -10 -10 -5 0 -10 5 -10 10 0 6 5 10 10 10 6 0 10 -4 10 -10z m2180 6
c0 -2 -7 -6 -15 -10 -8 -3 -15 -1 -15 4 0 6 7 10 15 10 8 0 15 -2 15 -4z
m-1940 -40 c0 -21 -11 -46 -20 -46 -9 0 -19 47 -12 55 11 10 32 5 32 -9z
m2198 -19 c-10 -20 -20 -16 -24 8 -1 8 6 13 16 12 15 -1 17 -5 8 -20z m-2388
-19 c0 -5 -7 -8 -15 -8 -8 0 -12 -6 -9 -14 3 -8 -3 -16 -15 -19 -14 -3 -21 0
-21 9 0 8 5 14 11 14 6 0 8 7 5 16 -3 8 -2 13 3 10 5 -3 12 2 15 11 6 15 8 15
16 3 6 -8 10 -18 10 -22z m410 -3 c0 -14 -24 -27 -34 -18 -3 3 -1 14 5 25 11
20 29 16 29 -7z m-610 -5 c0 -19 -11 -26 -23 -14 -8 8 3 34 14 34 5 0 9 -9 9
-20z m-67 -21 c-4 -13 -9 -17 -16 -10 -12 12 -1 45 12 37 5 -3 7 -15 4 -27z
m607 17 c0 -8 -4 -17 -9 -21 -12 -7 -24 12 -16 25 9 15 25 12 25 -4z m2026
-11 c13 17 14 16 14 -12 0 -25 -4 -31 -19 -30 -11 0 -18 4 -15 8 2 4 0 10 -6
14 -5 3 -10 14 -10 23 1 15 2 14 12 -2 11 -19 11 -19 24 -1z m-2331 -15 c0
-22 -29 -18 -33 3 -3 14 1 18 15 15 10 -2 18 -10 18 -18z m22 -12 c-3 -7 -5
-2 -5 12 0 14 2 19 5 13 2 -7 2 -19 0 -25z m2400 -10 c-3 -7 -5 -2 -5 12 0 14
2 19 5 13 2 -7 2 -19 0 -25z m-324 2 c-3 -12 -8 -19 -11 -16 -5 6 5 36 12 36
2 0 2 -9 -1 -20z m-2283 -16 c0 -8 -7 -14 -15 -14 -15 0 -21 21 -9 33 10 9 24
-2 24 -19z m330 16 c0 -5 -4 -10 -10 -10 -5 0 -10 5 -10 10 0 6 5 10 10 10 6
0 10 -4 10 -10z m1917 -27 c-4 -20 -2 -42 4 -49 12 -15 3 -37 -12 -29 -5 4 -9
1 -9 -6 0 -12 -29 -38 -43 -39 -5 0 2 14 14 31 12 18 23 47 23 65 1 19 4 34 8
34 5 0 8 7 8 15 0 8 3 15 6 15 4 0 4 -17 1 -37z m69 22 c-8 -8 -18 -15 -22
-15 -3 0 -1 7 6 15 7 8 17 15 22 15 5 0 3 -7 -6 -15z m38 -7 c-5 -8 -1 -9 10
-5 14 5 17 3 12 -8 -3 -8 0 -15 7 -15 8 0 7 -3 -2 -9 -23 -15 -41 -1 -41 31 0
17 4 27 10 23 6 -4 7 -11 4 -17z m-188 -24 c-3 -9 -6 -20 -6 -25 0 -5 -7 -9
-15 -9 -8 0 -15 -7 -15 -15 0 -17 -9 -19 -30 -5 -13 8 -13 11 -1 22 10 10 12
10 7 1 -9 -17 4 -16 26 1 10 7 15 16 11 19 -3 4 -1 7 6 7 7 0 9 5 6 10 -3 6
-1 10 5 10 7 0 9 -7 6 -16z m439 -4 c3 -5 1 -10 -4 -10 -6 0 -11 5 -11 10 0 6
2 10 4 10 3 0 8 -4 11 -10z m-2625 -21 c0 -4 -7 -6 -15 -3 -8 4 -15 10 -15 15
0 4 7 6 15 3 8 -4 15 -10 15 -15z m2347 -4 c-4 -8 -11 -15 -17 -15 -14 0 -13
27 3 33 16 6 21 1 14 -18z m168 -12 c-2 -10 -4 -21 -4 -25 -1 -5 -5 -8 -11 -8
-8 0 -8 23 -1 48 1 1 5 2 10 2 5 0 8 -8 6 -17z m29 2 c-4 -8 -8 -15 -10 -15
-2 0 -4 7 -4 15 0 8 4 15 10 15 5 0 7 -7 4 -15z m-339 -20 c-34 -28 -47 -32
-39 -11 3 8 18 19 32 25 39 14 40 13 7 -14z m214 22 c-2 -2 -16 -11 -31 -20
-22 -14 -26 -14 -22 -3 3 8 13 17 22 19 22 6 36 8 31 4z m-299 -37 c0 -5 -4
-10 -10 -10 -5 0 -10 5 -10 10 0 6 5 10 10 10 6 0 10 -4 10 -10z m310 -6 c0
-2 -7 -4 -15 -4 -8 0 -15 4 -15 10 0 5 7 7 15 4 8 -4 15 -8 15 -10z m-2425
-17 c0 -26 -20 -25 -23 2 -3 16 1 22 10 19 7 -3 13 -12 13 -21z m2747 -19 c10
2 18 -2 18 -7 0 -6 0 -14 0 -18 0 -4 -6 -8 -13 -9 -35 -3 -36 -4 -22 -31 14
-26 13 -28 -7 -36 -14 -5 -24 -3 -30 5 -12 20 -9 31 7 25 8 -4 17 -2 20 2 3 5
-1 11 -9 14 -8 3 -14 20 -14 42 0 31 2 34 16 23 8 -7 23 -12 34 -10z m-2472
-3 c0 -8 -4 -15 -9 -15 -13 0 -22 16 -14 24 11 11 23 6 23 -9z m1898 6 c11 -6
10 -10 -4 -15 -9 -3 -19 -4 -22 -1 -3 3 1 5 9 5 11 0 11 2 -1 10 -8 5 -10 10
-5 10 6 0 16 -4 23 -9z m-270 -36 c-6 -14 -13 -23 -16 -21 -7 7 9 46 18 46 5
0 4 -11 -2 -25z m83 -14 c-6 -11 -8 -26 -5 -35 4 -11 0 -13 -15 -9 -17 4 -20
11 -15 32 7 28 37 58 42 42 2 -5 -1 -19 -7 -30z m-1961 15 c0 -21 -11 -46 -20
-46 -10 0 -21 41 -14 52 9 13 34 9 34 -6z m2840 -30 c-12 -12 -15 -8 -25 22
-7 23 -6 23 14 6 13 -12 17 -22 11 -28z m-940 -10 c-5 -15 -14 -25 -19 -21 -5
3 -13 0 -17 -6 -5 -9 2 -10 24 -6 37 7 44 -9 10 -22 -44 -16 -74 -23 -60 -13
10 7 12 22 7 58 -6 43 -5 47 7 31 13 -18 15 -17 33 3 23 25 30 14 15 -24z
m858 3 l4 -24 -21 22 c-26 27 -26 32 -3 29 9 -2 18 -13 20 -27z m-948 17 c0
-3 -4 -8 -10 -11 -5 -3 -10 -1 -10 4 0 6 5 11 10 11 6 0 10 -2 10 -4z m1310
-52 c0 -2 -14 2 -31 8 -37 13 -50 3 -22 -17 21 -15 41 -61 20 -48 -6 4 -8 0
-4 -10 5 -13 1 -17 -17 -17 -14 0 -26 -5 -28 -12 -9 -27 -29 6 -27 46 4 57 10
75 20 50 7 -18 8 -18 8 2 2 37 21 45 52 21 16 -11 29 -22 29 -23z m-270 16 c0
-5 -4 -10 -10 -10 -5 0 -10 5 -10 10 0 6 5 10 10 10 6 0 10 -4 10 -10z m-2930
-4 c0 -3 -4 -8 -10 -11 -5 -3 -10 -1 -10 4 0 6 5 11 10 11 6 0 10 -2 10 -4z
m2890 -26 c0 -5 -9 -6 -19 -3 -12 3 -17 11 -14 19 4 11 9 12 19 3 8 -6 14 -15
14 -19z m180 20 c0 -5 -5 -10 -11 -10 -5 0 -7 5 -4 10 3 6 8 10 11 10 2 0 4
-4 4 -10z m-1290 -21 c0 -13 -18 -11 -22 2 -4 11 -49 -45 -52 -64 -1 -7 -5
-18 -9 -24 -5 -8 -4 -13 2 -13 6 0 11 5 11 10 0 6 5 10 10 10 27 0 4 -23 -49
-49 -57 -29 -59 -30 -64 -10 -5 18 -2 19 24 14 25 -6 29 -4 29 15 0 12 -4 19
-9 15 -6 -3 -9 4 -8 15 1 18 9 24 29 21 4 0 5 9 3 20 -3 15 0 19 10 15 8 -3
15 -1 15 5 0 6 5 7 10 4 6 -3 10 1 10 9 0 15 26 25 48 18 6 -2 12 -8 12 -13z
m-1696 -5 c5 -13 2 -15 -14 -11 -13 3 -20 0 -20 -10 0 -8 -4 -12 -9 -9 -5 3
-11 -1 -15 -9 -9 -24 -26 -18 -26 9 0 18 4 23 18 19 10 -2 24 3 31 11 17 20
27 20 35 0z m56 1 c0 -8 -7 -15 -15 -15 -8 0 -15 7 -15 15 0 8 7 15 15 15 8 0
15 -7 15 -15z m1731 -17 c5 -21 2 -28 -18 -37 -30 -14 -43 -14 -43 -1 0 6 7
10 15 10 9 0 12 6 9 15 -8 21 3 48 18 43 7 -3 15 -16 19 -30z m1191 -28 c4 0
8 -8 8 -19 0 -14 -6 -17 -26 -13 -14 2 -28 11 -31 18 -3 8 -10 11 -17 7 -6 -4
-5 1 3 10 7 9 10 17 5 17 -5 0 0 8 11 16 19 14 21 13 29 -10 6 -14 13 -26 18
-26z m-98 24 c9 -24 7 -34 -8 -34 -16 0 -29 27 -20 41 8 14 21 11 28 -7z
m-1210 -20 c-36 -19 -40 -18 -20 5 10 11 24 17 32 14 11 -4 8 -9 -12 -19z
m-1794 6 c0 -5 -7 -10 -16 -10 -8 0 -12 5 -9 10 3 6 10 10 16 10 5 0 9 -4 9
-10z m132 -12 c20 -23 21 -49 1 -55 -7 -3 -9 3 -6 16 4 15 1 21 -12 21 -14 0
-16 -7 -13 -31 4 -25 0 -35 -23 -51 -35 -26 -28 -52 11 -43 33 7 50 -10 20
-20 -11 -3 -20 -11 -20 -16 0 -6 5 -7 11 -3 8 4 8 0 0 -15 -12 -22 -31 -29
-31 -11 0 6 -9 6 -25 0 -29 -11 -33 1 -8 26 16 15 16 17 0 29 -23 17 -22 70 3
95 10 10 22 15 25 10 3 -5 1 -11 -5 -15 -6 -4 -7 -11 -4 -17 9 -14 24 11 24
40 0 12 5 22 10 22 6 0 10 9 10 20 0 26 8 25 32 -2z m-192 -40 c0 -10 -4 -18
-10 -18 -5 0 -10 15 -10 33 0 24 3 28 10 17 5 -8 10 -23 10 -32z m1877 17 c-4
-8 -11 -15 -17 -15 -14 0 -13 27 3 33 16 6 21 1 14 -18z m1398 -25 c3 -5 1
-10 -4 -10 -6 0 -11 5 -11 10 0 6 2 10 4 10 3 0 8 -4 11 -10z m-2855 -55 c0
-8 -4 -15 -10 -15 -5 0 -10 7 -10 15 0 8 5 15 10 15 6 0 10 -7 10 -15z m1168
-5 c-7 -10 -14 -17 -17 -15 -4 4 18 35 25 35 2 0 -1 -9 -8 -20z m-1576 -67
c-6 -19 -52 7 -52 29 0 11 4 17 8 14 5 -3 15 4 23 15 13 19 14 19 19 -13 4
-18 4 -38 2 -45z m168 56 c0 -6 -4 -7 -10 -4 -5 3 -10 11 -10 16 0 6 5 7 10 4
6 -3 10 -11 10 -16z m1430 -8 c-6 -12 -15 -21 -21 -21 -10 0 -4 15 16 36 15
17 18 9 5 -15z m-1005 -21 c3 -5 1 -10 -4 -10 -6 0 -11 5 -11 10 0 6 2 10 4
10 3 0 8 -4 11 -10z m979 -5 c17 -13 17 -15 3 -15 -11 0 -15 -6 -11 -17 4 -14
2 -13 -7 2 -27 41 -19 56 15 30z m-1524 -60 c7 -8 8 -15 2 -15 -5 0 -15 7 -22
15 -7 8 -8 15 -2 15 5 0 15 -7 22 -15z m484 -11 c4 -10 1 -14 -6 -12 -15 5
-23 28 -10 28 5 0 13 -7 16 -16z m66 6 c0 -5 -4 -10 -10 -10 -5 0 -10 5 -10
10 0 6 5 10 10 10 6 0 10 -4 10 -10z m-404 -33 c17 -10 18 -27 3 -27 -18 0
-38 32 -31 49 5 13 6 13 10 0 3 -7 11 -18 18 -22z m-44 -37 c0 -20 4 -30 14
-30 11 0 14 -8 12 -25 -2 -14 -7 -24 -13 -23 -5 2 -8 11 -7 21 2 10 -3 17 -14
17 -13 0 -15 -6 -11 -30 4 -16 2 -32 -3 -35 -6 -3 -10 -20 -10 -37 0 -22 4
-29 14 -25 24 10 27 -6 3 -22 -12 -9 -24 -15 -27 -14 -3 1 -11 -3 -17 -9 -10
-8 -13 -5 -13 10 0 12 4 24 10 27 6 3 7 30 3 65 -5 52 -4 60 11 60 10 0 14 5
11 10 -3 6 -2 10 3 10 12 0 25 31 17 39 -3 3 -10 -1 -15 -9 -6 -9 -10 -10 -10
-3 0 14 30 46 38 39 3 -3 5 -19 4 -36z m-57 20 c3 -5 -1 -10 -9 -10 -9 0 -16
5 -16 10 0 6 4 10 9 10 6 0 13 -4 16 -10z m435 -6 c0 -17 -22 -14 -28 4 -2 7
3 12 12 12 9 0 16 -7 16 -16z m95 6 c-3 -5 -10 -10 -16 -10 -5 0 -9 5 -9 10 0
6 7 10 16 10 8 0 12 -4 9 -10z m705 -68 c0 -5 -7 -9 -15 -9 -8 0 -15 4 -15 9
0 4 7 8 15 8 8 0 15 -4 15 -8z m-40 -52 c18 -12 2 -12 -25 0 -13 6 -15 9 -5 9
8 0 22 -4 30 -9z m-1146 -36 c3 -8 2 -12 -4 -9 -6 3 -10 10 -10 16 0 14 7 11
14 -7z m1016 -14 c-6 -11 -15 -20 -20 -20 -6 0 -2 9 7 20 10 11 19 20 21 20 1
0 -2 -9 -8 -20z m1589 -41 c-7 -4 -9 -14 -6 -24 4 -9 11 -13 17 -10 6 4 7 -1
3 -11 -4 -12 -3 -15 5 -10 7 4 12 15 12 24 0 9 12 25 25 35 22 16 26 16 31 3
7 -18 37 -16 75 5 17 9 24 9 27 0 8 -25 35 -41 68 -41 43 0 46 -1 62 -17 16
-16 36 -7 28 13 -7 18 15 14 31 -6 7 -9 12 -10 13 -4 0 18 31 26 46 13 8 -6
14 -8 14 -4 0 5 9 -2 20 -15 l20 -23 1 24 c0 15 3 18 6 9 10 -28 26 -42 33
-30 4 6 14 8 24 4 13 -5 14 -9 5 -20 -8 -10 -8 -14 0 -14 6 0 11 -4 11 -10 0
-5 -7 -10 -17 -10 -9 0 -31 -11 -48 -25 -18 -13 -35 -21 -39 -18 -3 4 -6 1 -6
-5 0 -7 -13 -12 -30 -12 -19 0 -33 -7 -40 -19 -5 -11 -20 -23 -32 -27 -12 -3
-26 -10 -32 -15 -6 -5 -24 -21 -41 -34 -16 -14 -42 -31 -57 -38 -16 -6 -28
-16 -28 -20 0 -5 -4 -5 -10 -2 -5 3 -10 2 -10 -4 0 -6 -19 -16 -42 -23 -24 -6
-60 -22 -81 -35 -48 -30 -148 -41 -167 -18 -13 16 -90 19 -90 3 0 -4 -9 1 -20
12 -11 11 -28 20 -37 20 -15 0 -16 2 -3 10 8 5 10 10 4 10 -12 0 -29 47 -25
65 2 6 4 21 5 34 2 15 12 28 25 33 13 5 19 12 15 19 -4 7 -3 9 4 5 6 -3 21 -1
35 5 20 9 24 17 21 49 -2 25 2 42 11 50 17 14 21 45 5 35 -5 -3 -10 2 -10 11
0 10 3 14 7 11 3 -4 17 2 29 14 25 24 62 31 82 16 15 -11 16 -2 2 24 -8 15 -7
19 5 19 8 0 15 -7 15 -15 0 -8 5 -15 11 -15 7 0 9 9 6 23 -6 21 -6 21 8 3 11
-15 12 -22 4 -27z m-343 12 c-4 -5 9 -8 28 -7 27 3 40 -3 58 -23 12 -14 22
-29 20 -33 -1 -5 4 -8 12 -8 8 0 16 -5 18 -11 5 -14 -15 -99 -22 -99 -14 0
-71 -59 -69 -71 4 -33 -2 -49 -18 -49 -11 0 -14 -3 -7 -8 6 -4 19 -22 29 -39
15 -26 17 -35 7 -45 -9 -9 -12 -9 -12 1 0 7 -4 9 -10 6 -5 -3 -10 0 -10 7 0 8
-5 6 -11 -5 -6 -9 -14 -15 -20 -12 -12 8 -42 -22 -34 -35 5 -9 -1 -12 -21 -9
-4 0 -10 -5 -14 -11 -12 -19 -77 -14 -112 9 -18 11 -58 33 -88 47 -30 14 -79
37 -108 51 -29 13 -50 28 -47 33 3 4 -4 10 -14 13 -15 3 -18 12 -14 44 2 26
-1 44 -10 52 -12 9 -13 7 -10 -13 5 -24 -14 -46 -26 -30 -3 5 -15 10 -26 12
-60 10 -75 16 -75 29 0 8 -6 13 -12 10 -7 -2 -28 2 -46 10 -18 7 -37 11 -42 8
-5 -3 -7 3 -5 13 3 18 -16 23 -40 11 -11 -6 -20 -5 -57 5 -21 6 -37 1 -75 -24
l-48 -32 3 -76 c2 -43 4 -129 6 -192 1 -63 6 -139 10 -168 8 -47 10 -50 22
-35 13 17 14 17 7 -1 -4 -12 0 -23 11 -31 9 -7 16 -17 15 -21 -1 -5 -1 -16 0
-23 2 -27 20 3 23 37 2 31 18 46 18 17 0 -8 5 -15 11 -15 7 0 10 12 7 30 -4
29 -4 30 19 15 13 -9 28 -13 33 -10 6 3 10 -4 10 -17 1 -20 2 -21 11 -5 10 17
69 25 69 8 0 -4 15 -8 33 -8 86 0 95 -2 90 -23 -3 -12 0 -20 6 -20 7 0 10 -3
8 -7 -3 -5 15 -6 40 -4 32 2 43 0 39 -8 -4 -6 -3 -11 3 -11 5 0 12 13 16 29 5
25 10 28 38 26 20 -1 36 4 44 14 8 10 7 1 -3 -23 -13 -32 -13 -40 -2 -47 8 -6
18 -2 26 9 7 9 16 17 20 17 10 0 62 52 62 61 0 3 9 18 20 34 14 19 31 29 55
32 20 2 35 0 36 -7 0 -5 2 -36 4 -68 4 -68 12 -83 21 -39 4 18 10 29 15 26 5
-3 7 -9 4 -14 -3 -5 -1 -19 6 -32 9 -17 9 -24 -4 -33 -15 -10 -15 -14 -2 -31
11 -15 14 -16 15 -4 0 13 2 13 9 1 5 -8 16 -11 24 -8 10 4 17 0 19 -11 2 -9 4
14 4 52 1 60 -1 67 -13 51 -10 -14 -13 -15 -13 -4 0 8 -11 23 -25 33 -23 17
-37 55 -16 41 5 -3 12 -1 16 5 3 5 13 10 22 10 11 0 14 -6 9 -23 -4 -18 -1
-23 15 -24 10 -1 17 2 14 7 -10 16 6 39 22 33 11 -4 14 -2 9 5 -4 7 -14 12
-22 12 -12 0 -14 7 -9 33 16 73 37 104 88 130 56 28 81 26 75 -8 -4 -17 2 -26
27 -37 24 -11 34 -11 43 -2 6 7 8 15 4 20 -4 4 -1 4 6 0 8 -5 9 -13 2 -26 -13
-24 -13 -30 0 -30 6 0 10 9 10 19 0 11 5 23 10 26 6 4 7 11 4 17 -8 12 5 6 49
-25 16 -11 26 -25 23 -33 -9 -22 3 -42 29 -48 34 -9 121 -103 138 -148 9 -25
63 -25 61 -1 -1 6 4 9 12 6 7 -2 10 -11 7 -19 -13 -35 51 -59 87 -33 13 9 13
10 0 6 -8 -2 -25 6 -38 18 -20 18 -21 25 -12 49 13 35 31 25 20 -12 -6 -22 -4
-29 6 -29 8 0 14 5 14 10 0 5 11 7 24 5 17 -4 26 0 29 12 6 24 73 25 86 2 9
-15 10 -14 11 7 0 20 4 22 24 17 31 -8 42 9 18 26 -17 12 -15 13 24 13 28 0
44 -5 44 -12 0 -9 8 -9 33 1 17 8 47 12 66 10 29 -4 32 -2 21 11 -10 12 -10
15 0 15 6 0 14 -9 17 -20 3 -11 9 -20 13 -20 5 0 11 -9 15 -19 4 -13 12 -17
26 -14 13 4 18 11 14 23 -4 12 1 22 11 28 13 7 18 28 22 91 3 47 0 86 -6 93
-18 24 -25 78 -10 95 11 14 11 16 -1 9 -11 -7 -12 1 -7 40 6 58 7 171 1 199
-3 11 -2 14 1 8 3 -7 14 -13 24 -13 14 0 17 -5 13 -21 -5 -18 -3 -20 16 -14
17 5 21 2 21 -15 0 -12 5 -18 10 -15 11 7 14 -18 3 -29 -10 -9 -10 -96 -1 -90
9 6 6 -26 -5 -43 -4 -6 -3 -14 3 -18 6 -4 8 -11 5 -16 -4 -5 -2 -9 4 -9 6 0
13 -16 17 -35 3 -19 12 -35 20 -35 15 0 26 -50 21 -95 -2 -16 1 -36 6 -42 5
-7 6 -13 1 -13 -5 0 -10 -16 -11 -36 -1 -28 2 -37 16 -41 17 -4 28 -53 12 -53
-4 0 -8 -8 -8 -17 -5 -44 -37 -176 -41 -165 -7 23 -22 12 -16 -12 3 -14 -3
-40 -15 -67 -12 -23 -21 -49 -21 -57 0 -7 -6 -12 -12 -10 -7 3 -20 -5 -29 -16
-13 -16 -29 -21 -68 -21 -35 -1 -51 3 -51 12 0 7 -3 12 -7 11 -5 0 -15 1 -23
4 -8 4 -24 9 -35 14 -11 4 -26 8 -34 10 -8 1 -18 9 -22 16 -8 12 -10 11 -13
-11 -2 -16 -14 -23 -26 -16 -9 6 -9 9 0 15 9 5 9 9 1 14 -6 4 -11 3 -11 -2 0
-6 -10 -8 -22 -5 -23 5 -23 5 -3 -10 23 -19 13 -22 -17 -6 -13 7 -18 7 -14 1
12 -20 -161 -131 -183 -118 -6 4 -11 1 -11 -7 0 -7 -10 -24 -22 -37 -26 -28
-28 -36 -33 -110 -3 -40 -1 -50 6 -37 5 9 15 17 22 17 7 1 21 15 32 32 28 44
46 48 43 9 -1 -17 -6 -31 -10 -31 -4 0 -8 -7 -8 -15 0 -18 -16 -20 -23 -2 -3
7 -6 5 -6 -5 -1 -10 -5 -18 -11 -18 -5 0 -9 -15 -9 -32 1 -18 3 -25 6 -16 2
10 9 18 14 18 10 0 -12 -59 -36 -92 l-15 -22 0 22 c0 12 5 22 11 22 5 0 7 5 4
11 -10 15 -36 -26 -29 -45 3 -9 2 -16 -4 -16 -16 0 -19 21 -10 68 9 48 2 70
-15 53 -13 -13 -17 -51 -5 -51 14 0 4 -64 -12 -77 -8 -7 -11 -13 -7 -13 9 0
-18 -30 -27 -30 -3 0 -6 8 -6 18 0 14 -2 15 -10 2 -5 -8 -10 -12 -10 -7 0 4
-9 -2 -20 -13 -25 -25 -40 -26 -41 -2 -1 16 -2 16 -6 0 -6 -23 -33 -23 -34 0
0 14 -2 14 -7 2 -10 -22 -79 -26 -102 -5 -11 10 -28 15 -40 12 -11 -3 -18 -1
-14 4 3 5 1 9 -5 9 -5 0 -12 -8 -14 -17 -3 -12 -7 -8 -12 15 -6 26 -10 30 -21
21 -8 -6 -25 -9 -39 -7 -27 6 -35 -9 -10 -18 8 -4 15 -13 15 -21 0 -13 -3 -13
-15 -3 -12 10 -19 10 -27 2 -8 -8 -17 -6 -34 4 -13 9 -32 13 -43 9 -12 -3 -39
-6 -61 -7 -25 0 -40 -5 -40 -13 0 -7 -10 -12 -22 -11 -13 1 -22 7 -21 13 1 6
-5 9 -15 7 -22 -5 -56 21 -47 36 4 6 13 9 20 6 8 -3 21 7 31 22 12 18 13 27 6
30 -7 2 -12 8 -12 13 0 6 5 7 10 4 6 -3 10 3 10 14 0 10 6 22 13 24 9 4 9 7
-1 15 -10 6 -10 15 -2 36 13 35 13 56 0 36 -5 -8 -10 -11 -10 -7 0 5 -5 5 -10
2 -8 -5 -8 -11 -1 -19 7 -9 2 -22 -21 -46 -17 -20 -26 -36 -19 -38 6 -2 11
-14 11 -26 0 -28 -24 -63 -33 -49 -4 6 -1 16 7 22 11 9 12 18 3 41 -6 17 -18
30 -25 30 -8 0 -12 6 -9 14 3 8 -3 22 -14 32 -10 9 -20 15 -20 13 -1 -2 -3
-13 -4 -24 -2 -11 -5 -27 -7 -35 -3 -8 -3 -12 -1 -7 7 11 33 8 33 -4 0 -5 -5
-7 -12 -3 -7 4 -8 3 -4 -4 4 -7 14 -12 23 -12 11 0 14 -6 9 -22 -3 -13 -6 -30
-6 -39 0 -9 -7 -20 -16 -23 -13 -5 -15 -2 -11 13 3 14 1 18 -9 14 -8 -3 -14 1
-14 9 0 7 -9 19 -20 26 -18 11 -19 10 -10 -12 7 -18 5 -26 -6 -30 -17 -6 -30
22 -40 84 -4 22 -10 37 -15 34 -5 -3 -12 3 -15 13 -3 10 -9 25 -13 33 -5 10
-2 21 7 30 12 10 17 11 20 2 2 -7 10 -12 17 -12 8 0 21 -7 29 -16 15 -14 17
-14 22 1 4 9 4 19 0 22 -3 3 0 13 7 21 10 13 9 15 -7 9 -16 -6 -18 -3 -14 22
3 21 1 28 -9 24 -7 -3 -13 1 -13 8 0 14 -47 59 -62 59 -5 0 -13 -12 -18 -26
-9 -23 -12 -24 -27 -13 -15 13 -15 12 -5 -8 21 -38 13 -37 -19 3 -17 22 -37
43 -45 47 -8 4 -14 15 -14 24 0 9 -3 14 -6 11 -6 -6 -56 41 -92 87 -20 25 -24
27 -40 13 -9 -9 -30 -16 -45 -16 -15 0 -35 -6 -45 -14 -9 -9 -23 -13 -31 -10
-9 3 -11 0 -6 -8 9 -14 -11 -30 -37 -30 -9 0 -34 16 -55 35 -21 19 -41 35 -45
35 -5 0 -8 10 -8 23 0 18 -2 19 -10 7 -9 -13 -12 -12 -25 4 -8 11 -15 16 -15
10 -1 -17 -33 51 -36 76 -2 14 -5 61 -8 105 -2 44 -9 81 -15 83 -6 2 -11 12
-11 23 0 10 -4 19 -10 19 -5 0 -10 7 -10 15 0 8 6 12 13 10 8 -4 12 8 11 42
-1 35 5 54 19 70 11 13 17 26 12 30 -4 5 -9 4 -12 -2 -8 -21 -22 -39 -27 -34
-3 3 -3 22 1 42 4 30 8 35 19 26 10 -8 14 -8 14 0 0 6 7 11 15 11 15 0 19 10
16 40 -1 8 5 4 13 -10 11 -19 11 -27 3 -33 -8 -6 -8 -7 2 -5 11 3 14 23 13 88
0 50 -5 86 -11 88 -6 2 -8 8 -5 14 4 6 1 13 -5 17 -7 4 -13 35 -15 69 -2 49 1
66 15 78 16 14 18 14 22 -3 4 -16 5 -16 6 2 1 17 41 65 41 50 0 -3 6 0 14 7 8
7 12 16 9 21 -7 11 12 8 24 -4 8 -8 13 -6 17 9 5 14 13 18 26 15 14 -4 20 0
20 11 0 9 4 16 9 16 4 0 7 -13 5 -28 -5 -43 24 -37 32 6 6 33 8 34 20 17 8
-10 14 -14 14 -8 0 16 32 25 41 11 6 -9 11 -9 23 1 13 11 16 11 16 0 0 -10 3
-10 12 -1 14 14 67 16 88 2 9 -6 14 -21 12 -39 -2 -16 0 -31 5 -34 4 -3 8 11
7 31 -1 58 6 68 28 41 10 -13 16 -17 13 -8 -5 13 0 15 26 11 22 -3 30 -1 25 7
-4 6 -4 11 1 9 4 -1 26 4 47 10 34 10 41 9 52 -6 11 -14 14 -14 15 -2 1 8 1
18 0 23 -2 11 13 8 37 -9 12 -8 20 -20 17 -25 -4 -5 -1 -9 5 -9 8 0 9 10 5 30
-6 25 -4 29 10 24 10 -4 14 -13 11 -23 -5 -13 -4 -13 8 2 13 17 32 24 22 8 -3
-5 1 -11 9 -15 8 -3 15 -1 15 5 0 6 5 7 10 4 8 -5 7 -11 -1 -21 -6 -8 -7 -14
-2 -14 5 0 15 12 21 26 11 23 14 24 28 10 21 -21 31 -20 37 5 3 12 10 18 15
15 6 -3 13 0 15 6 3 7 6 2 7 -12 0 -22 2 -23 11 -7 6 10 20 22 32 27 29 11 29
11 23 1z m-2347 -27 c12 -28 5 -94 -11 -94 -5 0 -8 -10 -7 -22 2 -13 -1 -29
-6 -37 -5 -10 -4 -16 3 -19 7 -2 12 -7 12 -12 0 -4 -11 -3 -25 3 -20 10 -25
19 -25 49 0 27 5 38 19 43 19 6 37 45 20 45 -5 0 -9 -5 -9 -12 0 -6 -2 -9 -5
-6 -8 7 6 88 15 88 4 0 12 -12 19 -26z m-52 -6 c-3 -8 -6 -5 -6 6 -1 11 2 17
5 13 3 -3 4 -12 1 -19z m177 3 c18 -7 18 -8 2 -14 -14 -6 -16 -10 -7 -21 6 -7
7 -16 3 -21 -4 -4 3 -3 15 4 12 6 29 8 37 5 13 -5 12 -9 -7 -26 -12 -11 -16
-16 -8 -12 11 5 13 3 8 -10 -4 -10 -7 -20 -7 -22 0 -11 -24 -2 -37 14 -8 9
-12 12 -9 6 3 -7 -3 -14 -14 -17 -24 -6 -26 6 -3 29 15 15 15 17 1 28 -17 13
-20 66 -3 65 6 0 19 -4 29 -8z m292 -28 c-10 -10 -19 5 -10 18 6 11 8 11 12 0
2 -7 1 -15 -2 -18z m-476 -3 c9 -16 8 -18 -5 -14 -8 4 -15 12 -15 20 0 20 7
17 20 -6z m507 -12 c-3 -7 -5 -2 -5 12 0 14 2 19 5 13 2 -7 2 -19 0 -25z
m2843 -44 c0 -8 -4 -12 -10 -9 -5 3 -10 13 -10 21 0 8 5 12 10 9 6 -3 10 -13
10 -21z m-3268 -36 c-16 -16 -21 -8 -15 27 6 29 6 29 16 7 7 -16 7 -26 -1 -34z
m210 -12 c3 -17 1 -23 -8 -19 -9 3 -11 -2 -7 -16 5 -21 -11 -30 -21 -12 -7 11
13 71 24 71 4 0 10 -11 12 -24z m-42 -7 c0 -11 -4 -18 -10 -14 -5 3 -7 12 -3
20 7 21 13 19 13 -6z m-23 -35 c2 -6 -4 -15 -14 -18 -9 -4 -14 -4 -10 0 4 4 1
14 -5 22 -10 12 -9 14 6 11 11 -2 21 -9 23 -15z m-42 -4 c3 -5 -1 -10 -9 -10
-9 0 -16 5 -16 10 0 6 4 10 9 10 6 0 13 -4 16 -10z m-153 -30 c6 0 8 -11 4
-26 -5 -17 -3 -23 4 -19 5 3 10 17 10 30 0 34 17 40 23 8 4 -21 -2 -33 -24
-54 -33 -31 -29 -39 20 -39 l36 -1 -23 -19 c-13 -11 -21 -23 -18 -28 3 -5 -6
-7 -20 -4 -15 3 -23 10 -20 18 3 7 0 14 -7 17 -6 2 -12 15 -12 28 -1 14 -4 30
-8 35 -3 6 -1 28 6 50 7 23 13 32 15 21 2 -9 8 -17 14 -17z m92 21 c3 -4 -1
-17 -9 -27 -14 -18 -14 -18 -15 9 0 26 13 36 24 18z m3869 -25 c4 -10 1 -13
-8 -9 -8 3 -12 9 -9 14 7 12 11 11 17 -5z m-3730 -53 c-5 -14 -23 -18 -23 -5
0 4 3 18 7 31 6 23 7 23 13 5 4 -10 5 -25 3 -31z m-306 15 c-3 -8 -6 -5 -6 6
-1 11 2 17 5 13 3 -3 4 -12 1 -19z m1123 18 c0 -3 -4 -8 -10 -11 -5 -3 -10 -1
-10 4 0 6 5 11 10 11 6 0 10 -2 10 -4z m2905 -16 c3 -5 1 -10 -4 -10 -6 0 -11
5 -11 10 0 6 2 10 4 10 3 0 8 -4 11 -10z m-3895 -35 c0 -8 -2 -15 -4 -15 -2 0
-6 7 -10 15 -3 8 -1 15 4 15 6 0 10 -7 10 -15z m307 -7 c-3 -8 -6 -5 -6 6 -1
11 2 17 5 13 3 -3 4 -12 1 -19z m1468 -14 c41 -17 69 -49 61 -70 -5 -14 -15
-16 -56 -11 -63 8 -88 21 -96 52 -14 56 9 63 91 29z m1408 20 c8 -8 -21 -66
-42 -81 -17 -13 -121 -18 -121 -5 1 15 46 61 75 76 31 16 77 21 88 10z m-2893
-24 c0 -5 -2 -10 -4 -10 -3 0 -8 5 -11 10 -3 6 -1 10 4 10 6 0 11 -4 11 -10z
m660 -77 c0 -27 -4 -43 -8 -36 -8 12 -4 83 4 83 2 0 4 -21 4 -47z m2907 25
c-3 -8 -6 -5 -6 6 -1 11 2 17 5 13 3 -3 4 -12 1 -19z m35 -20 c-7 -7 -12 -8
-12 -2 0 6 3 14 7 17 3 4 9 5 12 2 2 -3 -1 -11 -7 -17z m-3962 2 c0 -5 -2 -10
-4 -10 -3 0 -8 5 -11 10 -3 6 -1 10 4 10 6 0 11 -4 11 -10z m2484 -12 c-5 -7
-1 -9 9 -5 26 10 20 -9 -8 -27 -14 -9 -25 -12 -25 -6 0 7 -6 8 -19 1 -20 -11
-31 -5 -31 15 0 7 16 16 35 20 20 4 32 10 28 17 -3 6 -1 7 6 3 6 -4 8 -12 5
-18z m-2361 -2 c3 -8 1 -17 -6 -20 -7 -2 -4 -5 6 -5 9 -1 17 -8 17 -17 0 -11
-5 -14 -16 -10 -14 5 -15 4 -4 -9 7 -8 11 -15 9 -16 -38 -7 -36 -11 -30 84 1
13 19 8 24 -7z m3812 -16 c-4 -12 -9 -19 -12 -17 -3 3 -2 15 2 27 4 12 9 19
12 17 3 -3 2 -15 -2 -27z m-2832 -5 c-3 -9 -8 -14 -10 -11 -3 3 -2 9 2 15 9
16 15 13 8 -4z m-49 -59 c-3 -9 -10 -16 -15 -16 -5 0 -4 9 3 20 14 22 21 20
12 -4z m2841 -6 c0 -7 -5 -15 -12 -17 -7 -3 -11 4 -10 16 1 23 22 23 22 1z
m-3750 -20 c7 -12 -4 -54 -13 -46 -8 9 -9 56 0 56 4 0 10 -5 13 -10z m55 0 c0
-5 -2 -10 -4 -10 -3 0 -8 5 -11 10 -3 6 -1 10 4 10 6 0 11 -4 11 -10z m-101
-37 c10 -19 9 -23 -4 -23 -10 0 -15 9 -15 27 0 29 2 29 19 -4z m-139 -23 c0
-5 -4 -10 -10 -10 -5 0 -10 5 -10 10 0 6 5 10 10 10 6 0 10 -4 10 -10z m2397
-28 c8 -14 8 -19 0 -19 -7 0 -23 -3 -37 -5 -14 -3 -20 -3 -14 -1 7 2 14 13 17
24 6 24 19 24 34 1z m-1366 -35 c-8 -8 -11 -7 -11 4 0 20 13 34 18 19 3 -7 -1
-17 -7 -23z m-981 13 c0 -5 -5 -10 -11 -10 -5 0 -7 5 -4 10 3 6 8 10 11 10 2
0 4 -4 4 -10z m107 -37 c-3 -3 -10 -2 -16 2 -7 4 -7 10 2 20 10 11 13 11 15
-2 2 -8 1 -17 -1 -20z m113 -18 c0 -9 9 -15 23 -15 18 0 19 -2 7 -10 -8 -5
-26 -10 -39 -10 -17 0 -22 4 -17 16 3 9 6 20 6 25 0 5 5 9 10 9 6 0 10 -7 10
-15z m1063 0 c-3 -9 -8 -14 -10 -11 -3 3 -2 9 2 15 9 16 15 13 8 -4z m1890 -2
c-7 -2 -21 -2 -30 0 -10 3 -4 5 12 5 17 0 24 -2 18 -5z m-1293 -19 c0 -8 -5
-12 -10 -9 -6 4 -8 11 -5 16 9 14 15 11 15 -7z m63 0 c-1 -5 -9 -13 -18 -19
-11 -7 -18 -6 -25 5 -5 8 -7 18 -4 22 7 10 49 3 47 -8z m-1823 -27 c0 -5 -4
-5 -10 -2 -5 3 -10 -3 -10 -14 0 -17 7 -21 38 -22 34 0 35 -1 15 -11 -13 -6
-23 -15 -23 -20 0 -5 5 -6 10 -3 6 4 5 -4 -1 -19 -10 -20 -15 -23 -26 -15 -7
6 -22 9 -33 6 -23 -6 -26 6 -5 26 8 8 11 17 8 21 -3 3 0 24 7 46 9 28 16 37
22 28 4 -7 8 -17 8 -21z m3807 11 c-3 -8 -6 -5 -6 6 -1 11 2 17 5 13 3 -3 4
-12 1 -19z m-3777 -8 c0 -5 -2 -10 -4 -10 -3 0 -8 5 -11 10 -3 6 -1 10 4 10 6
0 11 -4 11 -10z m-90 -26 c0 -16 -16 -19 -25 -4 -8 13 4 32 16 25 5 -4 9 -13
9 -21z m930 0 c0 -8 -4 -14 -9 -14 -6 0 -9 9 -8 19 1 22 17 18 17 -5z m-970
-4 c0 -11 7 -20 15 -20 9 0 12 -6 9 -15 -9 -22 -17 -18 -31 12 -16 33 -16 43
-3 43 6 0 10 -9 10 -20z m987 -12 c-3 -8 -6 -5 -6 6 -1 11 2 17 5 13 3 -3 4
-12 1 -19z m-1017 -22 c0 -9 -7 -12 -20 -9 -11 3 -17 9 -14 14 8 14 34 10 34
-5z m1020 -23 c0 -16 -4 -35 -10 -43 -5 -9 -5 -19 2 -27 6 -8 8 -31 3 -60 -6
-37 -9 -43 -15 -28 -4 11 -4 32 1 48 5 16 4 27 -2 27 -6 0 -8 19 -5 48 2 26 5
50 5 55 1 4 6 7 11 7 6 0 10 -12 10 -27z m-1020 -13 c0 -5 7 -10 15 -10 8 0
15 -4 15 -10 0 -16 -27 -12 -34 6 -3 8 -10 12 -16 9 -6 -4 -7 -11 -4 -17 4 -6
-1 -8 -12 -6 -18 3 -22 23 -5 23 5 0 13 3 17 8 11 10 24 9 24 -3z m224 -40 c3
-14 3 -19 0 -12 -3 6 -19 12 -35 12 -19 0 -29 5 -29 15 0 18 20 20 20 3 0 -7
5 -5 11 5 13 22 24 13 33 -23z m819 25 c-3 -9 -8 -14 -10 -11 -3 3 -2 9 2 15
9 16 15 13 8 -4z m-973 -65 c0 -21 -25 -4 -28 20 -4 21 -2 22 12 7 9 -8 16
-21 16 -27z m-67 17 c4 3 7 -8 7 -25 0 -17 -5 -34 -11 -38 -7 -4 -9 2 -7 17 2
18 -2 25 -19 27 -18 3 -20 6 -10 17 7 8 16 10 23 4 6 -5 14 -6 17 -2z m147
-16 c0 -17 6 -31 16 -35 17 -7 16 -47 -2 -53 -7 -2 -10 6 -6 23 4 20 1 25 -9
22 -8 -3 -14 -16 -13 -29 1 -12 -7 -32 -17 -42 -10 -11 -15 -25 -13 -32 3 -7
1 -16 -5 -20 -6 -3 -11 -23 -11 -45 0 -24 -5 -40 -15 -44 -8 -3 -15 -10 -15
-16 0 -6 4 -9 9 -6 11 7 25 -69 16 -84 -12 -20 -21 -10 -17 19 2 16 -1 31 -6
35 -6 3 -8 -2 -5 -13 3 -11 0 -28 -6 -38 -9 -16 -10 -15 -11 8 0 15 -7 29 -15
33 -18 6 -20 -16 -5 -45 7 -12 7 -19 1 -19 -6 0 -15 -18 -21 -40 -14 -53 -24
-50 -28 8 -3 57 5 95 18 87 6 -3 10 1 10 9 0 8 7 21 15 29 12 13 12 16 -6 20
-16 4 -19 2 -14 -11 5 -14 4 -15 -7 -4 -11 11 -9 16 7 28 19 14 19 16 2 28
-10 8 -16 24 -15 39 2 20 7 25 23 22 11 -2 22 -4 25 -4 3 -1 -1 -5 -8 -9 -13
-9 -6 -42 9 -42 4 0 14 18 20 41 10 31 10 45 1 60 -18 28 -16 99 3 99 10 0 17
-14 21 -40 4 -22 10 -43 14 -45 5 -3 6 5 3 16 -4 15 1 27 14 38 24 18 40 61
24 61 -6 0 -11 -5 -11 -11 0 -5 -5 -7 -10 -4 -8 5 -7 11 1 21 20 24 39 16 39
-15z m60 13 c0 -17 -22 -14 -28 4 -2 7 3 12 12 12 9 0 16 -7 16 -16z m3860
-128 c0 -79 -12 -64 -17 21 -2 48 0 64 7 53 5 -8 10 -42 10 -74z m-4085 25 c3
-5 1 -12 -5 -16 -5 -3 -10 1 -10 9 0 18 6 21 15 7z m218 -63 c2 -7 -3 -23 -11
-36 -11 -17 -18 -20 -28 -11 -7 6 -23 8 -36 3 -24 -7 -25 -8 17 43 13 16 52
16 58 1z m742 2 c3 -5 1 -10 -4 -10 -6 0 -11 5 -11 10 0 6 2 10 4 10 3 0 8 -4
11 -10z m-698 -87 c8 -6 12 -16 8 -22 -11 -18 -25 -12 -25 10 0 11 -4 17 -10
14 -6 -4 -10 6 -10 22 1 26 1 26 12 8 6 -11 17 -25 25 -32z m3843 -3 c0 -5 -2
-10 -4 -10 -3 0 -8 5 -11 10 -3 6 -1 10 4 10 6 0 11 -4 11 -10z m-3955 -9 c3
-5 1 -12 -5 -16 -5 -3 -10 1 -10 9 0 18 6 21 15 7z m752 -53 c-3 -8 -6 -5 -6
6 -1 11 2 17 5 13 3 -3 4 -12 1 -19z m-663 -43 c-10 -26 -25 -16 -20 13 2 15
5 32 6 37 1 6 5 0 10 -13 5 -12 7 -29 4 -37z m663 -22 c-3 -10 -5 -4 -5 12 0
17 2 24 5 18 2 -7 2 -21 0 -30z m-857 -54 c0 -6 -4 -7 -10 -4 -5 3 -10 11 -10
16 0 6 5 7 10 4 6 -3 10 -11 10 -16z m810 -9 c0 -5 -2 -10 -4 -10 -3 0 -8 5
-11 10 -3 6 -1 10 4 10 6 0 11 -4 11 -10z m1130 0 c0 -5 -2 -10 -4 -10 -3 0
-8 5 -11 10 -3 6 -1 10 4 10 6 0 11 -4 11 -10z m-225 -59 c3 -5 2 -12 -3 -15
-5 -3 -9 1 -9 9 0 17 3 19 12 6z m20 -50 c3 -5 1 -12 -5 -16 -5 -3 -10 1 -10
9 0 18 6 21 15 7z m1505 -61 c0 -5 -2 -10 -4 -10 -3 0 -8 5 -11 10 -3 6 -1 10
4 10 6 0 11 -4 11 -10z m484 -85 c-4 -8 -11 -12 -16 -9 -6 4 -5 10 3 15 19 12
19 11 13 -6z m-1620 -4 c3 -5 -1 -11 -9 -14 -9 -4 -12 -1 -8 9 6 16 10 17 17
5z m33 -23 c-3 -8 -6 -5 -6 6 -1 11 2 17 5 13 3 -3 4 -12 1 -19z m-1407 -28
c0 -5 -7 -7 -15 -4 -8 4 -15 8 -15 10 0 2 7 4 15 4 8 0 15 -4 15 -10z m1590
-65 c-5 -14 -6 -25 -1 -25 5 0 8 -11 6 -25 -1 -14 2 -25 8 -25 5 0 -2 -9 -16
-20 -14 -11 -30 -20 -35 -20 -10 0 -26 29 -24 43 1 4 -6 7 -15 7 -13 0 -14 3
-5 12 8 8 9 15 0 25 -8 11 -7 12 5 7 12 -4 18 2 23 23 9 35 23 44 46 32 14 -7
15 -14 8 -34z m143 7 c-4 -9 -2 -13 4 -9 7 5 9 -1 6 -14 -4 -16 -2 -20 8 -17
8 3 13 15 11 30 -2 17 3 27 15 32 10 3 24 9 32 12 11 5 12 2 7 -12 -5 -14 -4
-16 4 -8 30 30 60 -11 62 -83 0 -14 7 -23 17 -24 10 0 11 -2 4 -6 -7 -2 -13
-11 -13 -18 0 -16 -38 -45 -57 -45 -7 0 -13 7 -13 16 0 8 4 13 8 10 5 -3 6 9
4 25 -6 39 -28 32 -24 -8 4 -41 -24 -53 -40 -17 l-12 25 -19 -23 -19 -23 5 23
c3 12 1 22 -4 22 -5 0 -9 -9 -9 -19 0 -31 -15 -33 -43 -7 -14 13 -29 21 -33
17 -4 -3 -4 5 -1 18 3 13 1 33 -4 44 -8 13 -8 22 0 30 6 6 11 21 11 33 0 17 7
24 28 26 38 5 72 -11 65 -30z m334 -6 c0 -8 -6 -12 -14 -9 -7 3 -13 11 -13 19
0 7 6 11 13 8 8 -3 14 -11 14 -18z m-2107 4 c0 -5 -2 -10 -4 -10 -3 0 -8 5
-11 10 -3 6 -1 10 4 10 6 0 11 -4 11 -10z m1505 -4 c8 -8 12 -27 10 -46 -6
-42 -25 -64 -26 -29 0 13 -2 39 -3 57 -4 36 -1 38 19 18z m482 -28 c-3 -8 -6
-5 -6 6 -1 11 2 17 5 13 3 -3 4 -12 1 -19z m63 -2 c0 -3 -4 -8 -10 -11 -5 -3
-10 -1 -10 4 0 6 5 11 10 11 6 0 10 -2 10 -4z m-2090 -16 c0 -5 -5 -10 -11
-10 -5 0 -7 5 -4 10 3 6 8 10 11 10 2 0 4 -4 4 -10z m2046 -9 c-4 -5 -2 -12 4
-16 5 -3 10 -11 10 -16 0 -6 -4 -8 -9 -5 -5 3 -11 -1 -15 -9 -9 -24 -20 -17
-31 18 -10 32 -10 33 18 35 16 1 26 -2 23 -7z m1564 -17 c0 -8 4 -14 9 -14 5
0 12 -7 15 -16 3 -8 2 -12 -4 -9 -6 3 -10 0 -10 -7 0 -7 -6 -2 -13 12 -15 29
-18 62 -5 54 4 -3 8 -12 8 -20z m-3634 -32 c-11 -11 -16 -12 -16 -4 0 18 24
43 29 30 2 -5 -4 -17 -13 -26z m834 2 c0 -2 -11 -4 -25 -4 -14 0 -25 4 -25 9
0 4 11 6 25 3 14 -2 25 -6 25 -8z m1596 1 c-1 -8 -5 -17 -8 -21 -5 -4 -4 16 1
34 3 9 9 -1 7 -13z m-846 -9 c0 -11 -19 -15 -25 -6 -3 5 1 10 9 10 9 0 16 -2
16 -4z m-1613 -48 c-3 -8 -6 -5 -6 6 -1 11 2 17 5 13 3 -3 4 -12 1 -19z m718
12 c3 -5 -1 -10 -9 -10 -9 0 -16 5 -16 10 0 6 4 10 9 10 6 0 13 -4 16 -10z
m865 -34 c0 -6 -7 -1 -15 10 -8 10 -15 23 -15 28 0 6 7 1 15 -10 8 -10 15 -23
15 -28z m89 10 c0 -7 -2 -6 -6 2 -2 6 -9 10 -14 7 -5 -4 -2 -17 7 -30 9 -13
11 -26 6 -29 -17 -10 -40 37 -31 63 8 19 12 21 24 11 8 -7 15 -18 14 -24z m71
-37 c0 -37 -4 -49 -15 -49 -15 0 -19 13 -15 65 5 67 30 54 30 -16z m455 51
c-3 -5 -12 -10 -18 -10 -7 0 -6 4 3 10 19 12 23 12 15 0z m-68 -44 c-30 -31
-41 -17 -22 27 7 17 9 17 23 3 13 -13 13 -16 -1 -30z m313 24 c0 -11 -2 -20
-4 -20 -2 0 -6 9 -9 20 -3 11 -1 20 4 20 5 0 9 -9 9 -20z m-576 -32 c-6 -9 38
3 54 15 9 7 16 7 24 -1 8 -8 17 -6 34 5 l24 15 -4 -48 c-3 -33 -8 -48 -17 -46
-7 2 -16 -3 -21 -10 -11 -17 -27 6 -29 42 -1 20 -3 18 -8 -9 -3 -19 -12 -36
-20 -39 -10 -3 -12 2 -7 22 5 19 3 26 -9 26 -9 0 -15 -9 -15 -21 0 -12 -10
-30 -22 -41 l-23 -20 48 5 c26 3 50 1 53 -4 10 -16 24 -10 18 9 -4 13 -4 14 4
4 10 -14 74 -24 66 -10 -3 4 -1 8 5 8 5 0 12 -8 14 -17 3 -13 5 -12 6 5 1 18
5 22 19 18 9 -3 32 -8 50 -10 18 -2 39 -12 47 -22 16 -21 15 -37 0 -32 -6 2
-9 6 -7 11 1 4 -2 7 -7 7 -5 0 -17 3 -25 6 -12 5 -15 2 -9 -12 5 -13 3 -16
-10 -11 -9 3 -19 2 -22 -3 -4 -6 -15 -4 -28 5 -21 13 -25 12 -50 -11 -30 -28
-37 -60 -11 -50 11 4 22 -1 32 -15 13 -19 21 -20 78 -15 53 5 65 3 74 -12 11
-16 11 -16 6 1 -7 21 3 21 31 -1 18 -14 19 -21 11 -42 -9 -21 -13 -119 -8
-185 2 -17 3 -16 9 5 4 14 10 20 13 14 4 -6 0 -23 -8 -38 -7 -16 -14 -34 -14
-41 0 -20 -49 -55 -77 -55 -13 0 -26 7 -29 15 -8 19 -34 20 -34 0 0 -10 -6
-12 -17 -8 -16 6 -17 5 -3 -12 14 -17 14 -18 -5 -8 -11 6 -26 8 -32 6 -8 -3
-13 4 -13 17 0 20 -4 22 -30 17 -16 -4 -32 -2 -35 3 -3 6 -15 10 -26 10 -10 0
-19 4 -19 9 0 15 -49 19 -54 5 -3 -8 -14 -14 -24 -14 -27 0 -51 -22 -56 -50
-3 -14 -5 -26 -5 -27 -3 -8 -41 33 -41 43 0 7 -8 15 -17 19 -15 5 -16 4 -5 -6
19 -20 14 -39 -11 -39 -32 0 -39 9 -21 27 16 17 10 35 -10 27 -8 -3 -17 -1
-20 5 -5 7 -15 7 -32 -1 -20 -10 -27 -8 -38 8 -19 26 -11 31 14 9 18 -16 20
-16 20 -2 0 10 -4 17 -9 17 -5 0 -8 17 -6 38 2 20 1 30 -1 22 -7 -23 -38 -40
-55 -29 -11 6 -11 11 -1 21 9 9 12 9 12 0 0 -7 4 -12 9 -12 5 0 4 21 -1 48 -5
26 -6 71 -2 100 6 46 9 52 25 47 11 -4 28 -3 40 0 19 6 19 8 3 19 -20 15 -13
31 17 39 18 5 20 2 15 -18 -3 -13 -2 -27 4 -30 6 -4 10 7 10 26 l0 32 45 -6
c50 -7 75 -1 75 18 0 8 9 17 21 20 20 7 20 8 3 24 -10 9 -31 16 -46 15 -17 -1
-28 3 -28 11 0 7 -10 19 -23 28 -20 13 -25 13 -42 1 -17 -13 -20 -12 -27 7 -5
12 -6 24 -3 27 2 3 7 -3 11 -12 6 -15 8 -14 25 5 16 19 23 20 59 11 22 -5 37
-6 34 -1 -3 5 0 9 6 9 6 0 10 14 8 33 -2 17 1 32 5 32 5 0 13 8 18 18 12 21
29 22 29 2 0 -8 7 -15 15 -15 13 0 14 4 4 23 l-12 22 20 -20 c11 -11 19 -23
17 -27z m166 32 c0 -5 6 -7 14 -4 16 6 23 -18 18 -59 -6 -37 -44 -55 -52 -25
-7 29 0 98 11 98 5 0 9 -4 9 -10z m157 -22 c-3 -8 -6 -5 -6 6 -1 11 2 17 5 13
3 -3 4 -12 1 -19z m-1635 -20 c-7 -7 -12 -8 -12 -2 0 14 12 26 19 19 2 -3 -1
-11 -7 -17z m924 -25 c-7 -17 -8 -17 -17 0 -12 21 -2 44 13 29 6 -6 8 -19 4
-29z m974 27 c0 -5 -7 -7 -15 -4 -8 4 -15 8 -15 10 0 2 7 4 15 4 8 0 15 -4 15
-10z m-1930 -9 c0 -6 -4 -13 -10 -16 -5 -3 -10 1 -10 9 0 9 5 16 10 16 6 0 10
-4 10 -9z m994 -36 c-4 -8 -11 -15 -16 -15 -6 0 -5 6 2 15 7 8 14 15 16 15 2
0 1 -7 -2 -15z m-1130 -47 c-9 -14 -23 2 -17 18 4 12 8 13 14 3 4 -7 5 -17 3
-21z m1155 -8 c0 -10 -3 -8 -9 5 -12 27 -12 43 0 25 5 -8 9 -22 9 -30z m63 -2
c-5 -23 -19 -38 -35 -38 -5 0 -5 5 -1 11 3 6 1 15 -6 19 -18 11 -3 30 25 30
19 0 22 -4 17 -22z m598 -8 c0 -5 -2 -10 -4 -10 -3 0 -8 5 -11 10 -3 6 -1 10
4 10 6 0 11 -4 11 -10z m-180 -60 c0 -5 -2 -10 -4 -10 -3 0 -8 5 -11 10 -3 6
-1 10 4 10 6 0 11 -4 11 -10z m-493 -260 c1 -11 -2 -18 -8 -15 -11 7 -12 35
-1 35 4 0 8 -9 9 -20z m721 -15 c-9 -9 -30 14 -23 25 6 9 10 8 17 -4 6 -10 8
-19 6 -21z"/>
<path d="M260 4236 c0 -2 7 -9 15 -16 13 -11 14 -10 9 4 -5 14 -24 23 -24 12z"/>
<path d="M3260 3712 c0 -5 6 -16 13 -27 10 -12 16 -14 21 -7 4 7 3 12 -3 12
-6 0 -8 7 -5 15 4 9 0 15 -10 15 -9 0 -16 -4 -16 -8z"/>
<path d="M2775 3149 c-11 -17 1 -21 15 -4 8 9 8 15 2 15 -6 0 -14 -5 -17 -11z"/>
<path d="M2990 3148 c0 -9 5 -20 10 -23 13 -8 13 5 0 25 -8 13 -10 13 -10 -2z"/>
<path d="M2676 3139 c4 -7 7 -26 7 -43 0 -17 2 -23 4 -13 3 9 9 17 14 17 5 0
9 11 9 25 0 19 -5 25 -21 25 -12 0 -18 -4 -13 -11z"/>
<path d="M2721 3134 c0 -11 3 -14 6 -6 3 7 2 16 -1 19 -3 4 -6 -2 -5 -13z"/>
<path d="M3041 3114 c0 -11 3 -14 6 -6 3 7 2 16 -1 19 -3 4 -6 -2 -5 -13z"/>
<path d="M3301 3104 c0 -11 3 -14 6 -6 3 7 2 16 -1 19 -3 4 -6 -2 -5 -13z"/>
<path d="M2510 3179 c0 -5 5 -7 10 -4 6 3 10 8 10 11 0 2 -4 4 -10 4 -5 0 -10
-5 -10 -11z"/>
<path d="M2517 3129 c5 -20 18 -25 27 -11 2 4 -4 13 -14 19 -15 10 -17 9 -13
-8z"/>
<path d="M2051 3114 c0 -11 3 -14 6 -6 3 7 2 16 -1 19 -3 4 -6 -2 -5 -13z"/>
<path d="M1710 3100 c0 -5 7 -7 15 -4 8 4 15 8 15 10 0 2 -7 4 -15 4 -8 0 -15
-4 -15 -10z"/>
<path d="M2115 3090 c3 -5 8 -10 11 -10 2 0 4 5 4 10 0 6 -5 10 -11 10 -5 0
-7 -4 -4 -10z"/>
<path d="M1962 3040 c0 -14 2 -19 5 -12 2 6 2 18 0 25 -3 6 -5 1 -5 -13z"/>
<path d="M2232 3040 c0 -14 2 -19 5 -12 2 6 2 18 0 25 -3 6 -5 1 -5 -13z"/>
<path d="M1461 2984 c0 -11 3 -14 6 -6 3 7 2 16 -1 19 -3 4 -6 -2 -5 -13z"/>
<path d="M1508 2934 c-3 -12 -2 -28 3 -35 12 -20 16 -8 9 26 -5 27 -6 28 -12
9z"/>
<path d="M2721 2641 c-7 -5 -12 -14 -10 -20 2 -6 10 -2 17 9 14 22 13 23 -7
11z"/>
<path d="M1450 2613 c0 -12 5 -25 11 -28 17 -11 18 -2 4 25 -14 24 -14 24 -15
3z"/>
<path d="M1692 2506 c7 -8 15 -12 17 -11 5 6 -10 25 -20 25 -5 0 -4 -6 3 -14z"/>
<path d="M1777 2513 c-5 -9 10 -53 17 -53 3 0 1 11 -4 24 -5 13 -6 27 -3 30 4
3 4 6 0 6 -3 0 -8 -3 -10 -7z"/>
<path d="M3358 2513 c7 -3 16 -2 19 1 4 3 -2 6 -13 5 -11 0 -14 -3 -6 -6z"/>
<path d="M2682 2490 c0 -14 2 -19 5 -12 2 6 2 18 0 25 -3 6 -5 1 -5 -13z"/>
<path d="M3755 2470 c3 -5 8 -10 11 -10 2 0 4 5 4 10 0 6 -5 10 -11 10 -5 0
-7 -4 -4 -10z"/>
<path d="M1650 2456 c0 -9 5 -16 10 -16 6 0 10 4 10 9 0 6 -4 13 -10 16 -5 3
-10 -1 -10 -9z"/>
<path d="M3298 2463 c7 -3 16 -2 19 1 4 3 -2 6 -13 5 -11 0 -14 -3 -6 -6z"/>
<path d="M3550 2440 c0 -5 5 -10 10 -10 6 0 10 5 10 10 0 6 -4 10 -10 10 -5 0
-10 -4 -10 -10z"/>
<path d="M2712 2370 c0 -14 2 -19 5 -12 2 6 2 18 0 25 -3 6 -5 1 -5 -13z"/>
<path d="M2467 2303 c-4 -3 -7 -11 -7 -17 0 -6 5 -5 12 2 6 6 9 14 7 17 -3 3
-9 2 -12 -2z"/>
<path d="M2475 2260 c-3 -11 -13 -27 -22 -35 -8 -9 -17 -35 -20 -58 -3 -23
-21 -71 -38 -107 -47 -93 -33 -138 57 -186 24 -13 27 -12 22 1 -4 8 -1 15 5
15 6 0 11 -4 11 -8 0 -5 6 -9 14 -9 8 0 12 6 9 14 -3 7 -9 10 -14 7 -5 -3 -9
2 -9 10 0 9 4 16 8 16 4 0 21 20 36 45 16 25 34 45 39 45 16 0 67 -51 67 -67
0 -7 7 -13 15 -13 9 0 18 -6 21 -13 2 -7 19 -14 37 -15 25 -2 38 4 59 29 30
34 33 44 19 53 -5 3 -12 22 -15 41 -4 19 -11 35 -15 35 -5 0 -18 20 -30 45
-12 25 -25 45 -29 45 -4 0 -14 27 -20 60 -7 32 -16 62 -21 64 -10 6 -68 -20
-76 -35 -10 -14 -25 -11 -25 7 0 8 -4 13 -8 10 -5 -3 -21 2 -36 10 -35 18 -33
18 -41 -6z"/>
<path d="M2037 2163 c-4 -3 -7 -11 -7 -17 0 -6 5 -4 10 4 8 13 10 12 10 -2 0
-12 8 -18 22 -18 l21 0 -23 20 c-26 23 -25 22 -33 13z"/>
<path d="M2081 2104 c0 -11 3 -14 6 -6 3 7 2 16 -1 19 -3 4 -6 -2 -5 -13z"/>
<path d="M2550 1940 c0 -5 7 -10 16 -10 8 0 12 5 9 10 -3 6 -10 10 -16 10 -5
0 -9 -4 -9 -10z"/>
<path d="M2535 1910 c-19 -8 -19 -9 3 -9 12 -1 22 4 22 9 0 6 -1 10 -2 9 -2 0
-12 -4 -23 -9z"/>
<path d="M2610 1900 c13 -8 12 -10 -2 -10 -14 0 -18 -8 -17 -32 1 -30 2 -31 8
-8 4 16 14 25 26 25 22 0 37 14 29 27 -3 4 -17 8 -32 8 -21 0 -24 -2 -12 -10z"/>
<path d="M2160 1815 c0 -8 4 -15 10 -15 5 0 7 7 4 15 -4 8 -8 15 -10 15 -2 0
-4 -7 -4 -15z"/>
<path d="M2552 1795 c0 -16 2 -22 5 -12 2 9 2 23 0 30 -3 6 -5 -1 -5 -18z"/>
<path d="M2246 1783 c-6 -14 -5 -15 5 -6 7 7 10 15 7 18 -3 3 -9 -2 -12 -12z"/>
<path d="M2390 1770 c0 -22 -4 -28 -15 -24 -11 5 -15 -1 -15 -20 0 -24 2 -25
20 -16 15 8 20 21 20 50 0 22 -2 40 -5 40 -3 0 -5 -13 -5 -30z"/>
<path d="M2521 1784 c0 -11 3 -14 6 -6 3 7 2 16 -1 19 -3 4 -6 -2 -5 -13z"/>
<path d="M2693 1774 c-3 -10 -10 -21 -14 -24 -9 -6 -12 -27 -9 -65 2 -20 4
-24 7 -12 3 13 11 17 24 14 22 -6 26 11 4 19 -8 4 -15 11 -15 16 0 6 7 8 15 5
11 -5 13 0 8 26 -8 41 -11 44 -20 21z"/>
<path d="M2757 1744 c-9 -9 4 -35 14 -28 5 3 9 12 9 20 0 14 -12 19 -23 8z"/>
<path d="M2805 1740 c-3 -5 -1 -10 4 -10 6 0 11 5 11 10 0 6 -2 10 -4 10 -3 0
-8 -4 -11 -10z"/>
<path d="M2616 1704 c-3 -9 -2 -23 4 -32 7 -14 9 -10 10 16 0 35 -5 41 -14 16z"/>
<path d="M2340 1683 c0 -13 5 -23 10 -23 13 0 13 11 0 30 -8 12 -10 11 -10 -7z"/>
<path d="M2377 1683 c-4 -3 -7 -11 -7 -17 0 -6 5 -5 12 2 6 6 9 14 7 17 -3 3
-9 2 -12 -2z"/>
<path d="M2310 1647 c0 -7 11 -13 25 -13 14 0 25 4 25 9 0 5 -7 7 -15 3 -8 -3
-15 -1 -15 4 0 6 -4 10 -10 10 -5 0 -10 -6 -10 -13z"/>
<path d="M2670 1485 c0 -5 5 -17 10 -25 5 -8 10 -10 10 -5 0 6 -5 17 -10 25
-5 8 -10 11 -10 5z"/>
<path d="M2520 1419 c0 -5 5 -7 10 -4 6 3 10 8 10 11 0 2 -4 4 -10 4 -5 0 -10
-5 -10 -11z"/>
<path d="M2497 1400 c3 -11 9 -20 14 -20 11 0 11 3 3 24 -9 23 -23 20 -17 -4z"/>
<path d="M2711 1374 c0 -11 3 -14 6 -6 3 7 2 16 -1 19 -3 4 -6 -2 -5 -13z"/>
<path d="M2520 1258 c0 -9 5 -20 10 -23 13 -8 13 5 0 25 -8 13 -10 13 -10 -2z"/>
<path d="M2487 1196 c-4 -9 2 -13 19 -13 27 0 32 12 8 21 -21 8 -21 8 -27 -8z"/>
<path d="M2640 1100 c0 -5 4 -10 9 -10 6 0 13 5 16 10 3 6 -1 10 -9 10 -9 0
-16 -4 -16 -10z"/>
<path d="M2500 1060 c19 -13 30 -13 30 0 0 6 -10 10 -22 10 -19 0 -20 -2 -8
-10z"/>
<path d="M2815 1000 c3 -5 8 -10 11 -10 2 0 4 5 4 10 0 6 -5 10 -11 10 -5 0
-7 -4 -4 -10z"/>
<path d="M2825 960 c-3 -5 -1 -10 4 -10 6 0 11 5 11 10 0 6 -2 10 -4 10 -3 0
-8 -4 -11 -10z"/>
<path d="M2878 905 c-2 -20 -1 -38 3 -41 4 -2 5 -14 2 -27 -4 -18 -3 -19 6 -7
6 9 8 34 5 60 -8 57 -11 60 -16 15z"/>
<path d="M2712 845 c0 -16 2 -22 5 -12 2 9 2 23 0 30 -3 6 -5 -1 -5 -18z"/>
<path d="M2880 800 c0 -5 5 -10 11 -10 5 0 7 5 4 10 -3 6 -8 10 -11 10 -2 0
-4 -4 -4 -10z"/>
<path d="M2822 745 c0 -16 2 -22 5 -12 2 9 2 23 0 30 -3 6 -5 -1 -5 -18z"/>
<path d="M2731 1274 c0 -11 3 -14 6 -6 3 7 2 16 -1 19 -3 4 -6 -2 -5 -13z"/>
<path d="M2731 1234 c0 -11 3 -14 6 -6 3 7 2 16 -1 19 -3 4 -6 -2 -5 -13z"/>
<path d="M4233 4598 c0 -7 -2 -17 -3 -23 -7 -30 1 -42 26 -37 23 4 25 2 19
-17 -4 -12 -2 -21 4 -21 6 0 3 -15 -7 -35 -16 -33 -28 -40 -62 -35 -11 1 -9
-3 5 -15 11 -9 14 -14 8 -10 -8 4 -13 0 -13 -9 0 -18 16 -21 25 -6 11 18 25
10 25 -14 0 -28 35 -42 49 -19 7 13 11 13 29 2 12 -8 22 -22 22 -31 0 -10 4
-18 9 -18 11 0 12 -68 0 -75 -4 -3 -6 -12 -2 -20 3 -8 0 -15 -6 -15 -6 0 -11
7 -11 15 0 8 -4 15 -10 15 -5 0 -10 -7 -10 -15 0 -8 -5 -15 -11 -15 -6 0 -9 9
-6 20 3 11 2 20 -3 20 -4 0 -11 -15 -14 -34 -4 -19 -13 -39 -21 -46 -20 -16
-19 -36 1 -44 10 -4 14 -12 10 -22 -4 -9 -1 -23 5 -30 10 -12 8 -13 -7 -8 -15
6 -17 4 -7 -6 6 -7 9 -19 6 -26 -3 -8 -2 -14 2 -14 12 0 34 34 35 53 0 21 26
23 34 1 7 -20 -2 -37 -16 -28 -6 4 -8 -21 -6 -72 3 -71 5 -79 23 -79 25 -1 55
41 55 78 0 17 5 27 15 27 9 0 12 6 9 15 -4 8 -1 15 4 15 6 0 12 -8 14 -17 4
-16 3 4 -1 111 -1 15 -4 16 -16 6 -13 -11 -15 -8 -15 14 0 18 5 26 18 26 13 0
14 2 3 9 -7 5 -10 14 -7 20 4 6 0 11 -8 11 -9 0 -16 4 -16 10 0 5 -7 7 -15 4
-19 -8 -19 7 0 32 15 19 15 19 34 -3 11 -13 24 -23 29 -23 6 0 13 -13 17 -30
4 -16 11 -30 16 -30 6 0 6 7 1 18 -12 25 -9 54 10 82 9 14 15 34 13 45 -2 11
-4 24 -4 28 -1 5 -4 6 -9 3 -15 -9 -37 20 -39 51 -2 23 3 33 15 36 16 4 16 5
0 6 -14 1 -16 12 -15 69 2 61 4 67 24 68 12 1 27 4 35 6 17 7 51 -17 54 -38 1
-8 -4 -18 -12 -21 -11 -4 -11 -9 1 -33 8 -16 15 -36 15 -45 0 -9 8 -19 19 -22
24 -6 49 -79 33 -95 -9 -9 -12 -9 -12 0 0 7 -7 12 -15 12 -8 0 -15 5 -15 10 0
6 -4 10 -9 10 -4 0 -6 -11 -4 -24 4 -20 2 -24 -14 -20 -15 4 -21 -3 -29 -36
-11 -38 -10 -42 14 -60 18 -15 21 -20 8 -20 -13 0 -15 -7 -10 -35 4 -27 2 -35
-10 -35 -9 0 -16 5 -16 12 0 6 -3 9 -6 6 -3 -3 2 -40 10 -82 9 -41 16 -77 16
-80 0 -3 14 -3 30 1 29 5 30 5 23 -28 -3 -19 -13 -39 -21 -45 -13 -9 -12 -14
5 -31 22 -22 40 -80 28 -91 -4 -4 -10 -1 -12 6 -3 6 -9 9 -15 6 -5 -3 -16 2
-24 12 -13 18 -14 17 -8 -11 4 -16 11 -35 16 -42 5 -7 7 -17 3 -22 -3 -6 0 -8
8 -5 11 4 16 -5 19 -33 3 -21 1 -43 -4 -50 -6 -7 -5 -19 1 -32 6 -11 11 -29
11 -40 0 -14 6 -21 20 -21 17 0 19 -5 15 -27 -5 -23 -4 -25 5 -10 13 20 50 23
50 3 0 -8 -6 -17 -12 -19 -9 -4 -8 -6 2 -6 8 0 22 4 30 9 10 6 11 10 3 10 -17
0 -16 18 1 35 7 8 14 32 14 54 1 46 9 64 23 55 6 -3 7 4 3 20 -3 15 -2 26 4
26 6 0 5 15 -1 40 -9 31 -15 39 -31 37 -13 -1 -20 3 -18 12 5 26 -8 50 -25 44
-13 -5 -15 -2 -11 15 4 12 2 22 -3 22 -13 0 -11 78 3 86 6 4 14 2 16 -4 2 -7
10 -12 18 -12 19 0 18 -35 -1 -54 -16 -16 -19 -13 44 -32 18 -4 19 -1 14 33
-6 34 -5 37 10 25 9 -8 16 -21 15 -30 -3 -42 3 -125 8 -119 4 4 7 33 6 66 0
48 3 61 16 64 14 4 14 5 -2 6 -15 1 -18 7 -14 34 3 17 2 52 -2 77 -7 40 -8 42
-9 11 -1 -26 -4 -32 -17 -27 -9 3 -18 6 -20 6 -2 0 -4 7 -4 16 0 8 4 13 9 10
12 -8 21 30 9 42 -6 6 -6 12 1 16 6 4 11 0 11 -8 0 -21 6 -20 29 3 22 22 56
18 83 -10 22 -22 33 -80 17 -89 -15 -10 9 -78 32 -91 17 -8 39 -58 39 -86 0
-10 -6 -12 -22 -7 -13 3 -24 11 -26 15 -2 5 -7 9 -12 9 -12 0 1 -42 20 -65 20
-23 33 -82 21 -90 -15 -9 -70 69 -61 85 6 12 1 16 -26 17 -28 3 -34 -1 -34
-16 0 -11 5 -23 10 -26 6 -4 8 -11 4 -16 -3 -5 0 -8 7 -7 9 2 13 -10 14 -37 0
-27 -4 -39 -12 -38 -7 2 -13 -2 -13 -7 0 -22 -22 -8 -31 20 -13 35 -24 38 -41
10 -7 -11 -18 -20 -25 -20 -7 0 -13 -4 -13 -10 0 -5 4 -10 9 -10 12 0 22 -82
11 -95 -13 -16 15 -89 35 -93 13 -3 15 -10 11 -30 -5 -22 -4 -24 4 -9 13 20
50 23 50 3 0 -8 -6 -17 -12 -20 -7 -3 -1 -4 15 -1 20 4 27 1 27 -11 0 -10 -6
-14 -14 -11 -20 8 -36 -13 -36 -45 0 -18 5 -28 15 -28 9 0 15 -10 16 -27 1
-17 3 -21 6 -10 5 21 53 24 53 3 0 -8 -6 -17 -12 -20 -7 -3 -4 -4 7 -3 15 2
19 9 17 26 -2 15 0 21 7 17 6 -4 11 -1 12 6 9 121 10 114 -7 93 -11 -14 -18
-16 -21 -7 -3 6 -11 12 -19 12 -8 0 -14 7 -14 16 0 10 -6 14 -15 10 -9 -3 -15
0 -15 9 0 8 6 15 14 15 17 0 25 46 15 102 -4 26 -7 33 -8 17 -1 -35 -10 -41
-30 -22 -11 12 -13 17 -3 21 6 2 12 8 12 14 0 15 52 53 75 54 30 2 47 -7 41
-22 -3 -8 0 -13 7 -11 8 1 12 -16 13 -53 1 -72 13 -120 30 -120 8 0 14 -5 14
-11 0 -5 -3 -8 -8 -5 -4 2 -16 -2 -27 -10 -18 -14 -21 -38 -12 -109 1 -11 -3
-19 -9 -18 -13 3 -7 -34 7 -43 5 -3 9 -16 9 -28 0 -15 7 -26 19 -29 12 -3 19
-12 17 -23 -2 -11 -1 -13 1 -6 3 6 11 12 20 12 13 0 13 -3 2 -16 -10 -13 -10
-17 2 -25 12 -7 12 -9 -1 -9 -13 0 -13 -1 0 -10 8 -5 10 -10 4 -10 -6 0 -19 9
-28 19 -10 11 -25 17 -35 14 -11 -3 -27 4 -39 17 -16 18 -20 19 -25 6 -4 -9
-2 -16 3 -16 6 0 10 -5 10 -11 0 -5 -4 -8 -9 -5 -5 3 -2 -16 7 -44 10 -27 23
-50 30 -50 6 0 13 -12 13 -27 1 -17 3 -21 6 -10 5 19 38 23 49 6 3 -6 0 -16
-7 -21 -10 -7 -6 -8 14 -4 15 4 27 2 27 -4 0 -5 -7 -10 -15 -10 -8 0 -15 -4
-15 -10 0 -5 -7 -10 -16 -10 -11 0 -14 -5 -10 -16 3 -9 6 -22 6 -30 0 -8 6
-14 14 -14 7 0 17 -18 22 -42 5 -24 15 -42 24 -43 12 -2 16 16 18 97 3 82 1
99 -10 92 -10 -6 -10 -4 1 9 18 23 6 34 -14 13 -20 -20 -25 -20 -25 -1 0 8 3
14 8 13 4 0 15 2 25 6 18 9 24 46 7 46 -5 0 -10 9 -10 20 0 11 5 20 10 20 17
0 12 146 -5 164 -18 18 -19 27 -2 20 16 -6 18 38 3 49 -8 5 -7 10 2 15 15 10
15 175 1 166 -5 -3 -12 2 -15 11 -4 9 -12 14 -20 11 -8 -3 -17 8 -24 30 -6 19
-16 32 -21 29 -5 -4 -9 1 -9 9 0 38 84 45 93 8 3 -10 5 -6 6 11 1 16 -5 30
-14 33 -18 7 -20 25 -2 21 9 -1 13 47 15 212 2 184 0 216 -13 231 -10 11 -12
20 -7 24 6 3 13 0 15 -6 3 -7 6 4 6 24 1 20 -3 38 -9 40 -8 2 -12 18 -19 78
-1 10 -50 5 -60 -5 -6 -6 -6 -27 -1 -55 4 -25 6 -48 4 -51 -2 -4 6 -5 18 -2
17 3 19 2 9 -5 -7 -5 -11 -14 -8 -19 3 -5 0 -10 -8 -10 -8 0 -20 15 -27 34 -7
18 -20 35 -30 39 -10 3 -19 15 -20 27 0 12 -2 29 -2 37 -1 8 -9 14 -17 12 -9
-1 -21 9 -27 23 -10 22 -9 25 9 25 11 0 17 5 14 10 -4 7 3 9 19 6 18 -3 26 0
26 10 0 8 6 14 13 14 6 0 23 14 36 30 23 30 41 32 41 4 0 -8 -6 -14 -14 -14
-7 0 -16 -11 -18 -24 -4 -17 5 -32 34 -59 l38 -36 0 30 c0 23 -4 30 -17 27
-23 -3 -43 9 -43 28 0 8 5 12 10 9 6 -3 18 -4 28 -1 16 5 18 22 21 146 2 126
1 140 -15 140 -12 0 -14 -3 -6 -13 6 -7 7 -18 3 -25 -9 -15 -40 -6 -58 17 -10
13 -10 9 -1 -19 6 -19 15 -40 19 -46 5 -6 5 -15 1 -19 -4 -5 -2 -5 4 -2 16 9
38 -19 30 -38 -7 -20 -22 -19 -45 4 -11 11 -22 17 -25 14 -3 -4 -6 6 -6 21 0
16 -4 25 -10 21 -5 -3 -10 -1 -10 4 0 6 -10 11 -21 11 -17 0 -19 -3 -10 -14 9
-10 8 -15 -3 -19 -20 -8 -40 18 -33 43 3 11 1 20 -5 20 -6 0 -8 9 -5 20 5 18
0 20 -39 20 -38 0 -44 -3 -44 -21 0 -16 -5 -20 -18 -17 -14 4 -18 -1 -17 -25
0 -17 -6 -32 -12 -34 -7 -3 -13 3 -13 12 0 14 -3 15 -15 5 -13 -11 -15 -8 -15
14 0 17 5 26 16 26 20 0 14 34 -7 38 -11 2 -19 -6 -23 -22 -4 -15 -11 -26 -17
-26 -6 0 -7 4 -4 10 3 6 -1 7 -9 4 -10 -4 -16 -1 -16 9 0 9 8 18 18 20 13 4
12 5 -4 6 -16 1 -24 -7 -29 -26 -3 -15 -9 -22 -13 -17 -11 16 -41 24 -47 13
-4 -5 -11 -7 -16 -4 -5 4 -9 0 -10 -7 0 -7 -6 -1 -12 13 l-12 27 -142 1 c-116
1 -144 -2 -157 -15 -15 -14 -16 -14 -16 0 0 19 -16 22 -17 4z m32 -38 c-3 -5
-10 -10 -16 -10 -5 0 -9 5 -9 10 0 6 7 10 16 10 8 0 12 -4 9 -10z m625 0 c0
-5 -4 -10 -10 -10 -5 0 -10 5 -10 10 0 6 5 10 10 10 6 0 10 -4 10 -10z m-175
-19 c3 -11 12 -22 21 -25 21 -8 -4 -46 -31 -46 -14 0 -16 3 -7 9 10 6 10 10
-3 21 -12 10 -13 16 -3 29 12 14 11 14 -5 2 -9 -8 -21 -11 -25 -7 -7 7 24 36
39 36 4 0 10 -9 14 -19z m137 -31 c5 0 6 -4 3 -10 -3 -5 -2 -10 3 -10 12 0 25
-47 16 -61 -9 -14 -41 17 -48 47 -4 14 -11 22 -15 19 -5 -3 -4 9 2 25 11 29
12 30 21 10 5 -11 13 -20 18 -20z m-491 -12 c7 -18 14 -36 16 -40 5 -8 -54
-38 -62 -30 -5 5 1 60 10 90 7 22 23 13 36 -20z m66 -8 c1 -11 -2 -20 -7 -20
-10 0 -20 26 -13 34 12 11 19 6 20 -14z m552 -7 c-10 -11 -10 -14 -1 -9 15 9
33 -34 25 -63 -4 -17 -8 -19 -19 -10 -11 9 -14 8 -14 -5 0 -9 -4 -16 -9 -16
-10 0 -7 74 4 103 4 9 12 17 17 17 6 0 4 -8 -3 -17z m-356 -48 c-7 -21 -13
-19 -13 6 0 11 4 18 10 14 5 -3 7 -12 3 -20z m47 -7 c0 -5 -4 -8 -10 -8 -5 0
-10 10 -10 23 0 18 2 19 10 7 5 -8 10 -18 10 -22z m119 -9 c2 -34 -1 -40 -14
-36 -8 4 -15 2 -15 -3 0 -6 -4 -10 -10 -10 -15 0 -12 77 3 83 27 11 33 5 36
-34z m-75 16 c-4 -8 -2 -21 3 -28 12 -17 8 -93 -6 -110 -14 -17 -4 -47 15 -47
20 0 17 -10 -8 -31 -25 -23 -32 -24 -25 -5 3 8 -7 26 -24 40 -37 33 -37 47 0
42 35 -4 41 7 41 67 0 31 -3 38 -10 27 -10 -16 -14 -8 -10 25 1 11 7 23 14 27
15 11 16 10 10 -7z m-334 -15 c0 -5 -4 -10 -10 -10 -5 0 -10 5 -10 10 0 6 5
10 10 10 6 0 10 -4 10 -10z m506 -47 c-10 -10 -19 5 -10 18 6 11 8 11 12 0 2
-7 1 -15 -2 -18z m34 18 c0 -6 -4 -13 -10 -16 -5 -3 -10 1 -10 9 0 9 5 16 10
16 6 0 10 -4 10 -9z m-507 -15 c6 -16 -2 -28 -14 -20 -12 7 -11 34 0 34 5 0
11 -6 14 -14z m257 4 c0 -5 -4 -10 -10 -10 -5 0 -10 5 -10 10 0 6 5 10 10 10
6 0 10 -4 10 -10z m-380 -10 c0 -5 -2 -10 -4 -10 -3 0 -8 5 -11 10 -3 6 -1 10
4 10 6 0 11 -4 11 -10z m604 -19 c4 -1 6 -8 2 -16 -3 -9 0 -15 9 -15 8 0 15
-3 15 -7 0 -12 -43 -53 -56 -53 -6 0 -14 -7 -18 -15 -3 -8 -1 -15 4 -15 6 0
10 -7 10 -15 0 -8 4 -15 9 -15 5 0 7 -9 4 -20 -3 -11 -8 -20 -12 -20 -16 1
-42 30 -44 48 0 11 -5 18 -9 16 -4 -3 -8 2 -8 10 0 9 -7 16 -15 16 -8 0 -15 4
-15 10 0 5 -7 7 -15 4 -10 -4 -15 0 -15 15 0 19 3 20 20 11 17 -9 20 -8 20 10
0 11 6 20 13 20 7 0 18 9 25 20 9 15 20 19 40 16 15 -2 31 -5 36 -5z m-104
-11 c0 -5 -4 -10 -10 -10 -5 0 -10 5 -10 10 0 6 5 10 10 10 6 0 10 -4 10 -10z
m-98 -22 c-7 -7 -12 -8 -12 -2 0 6 3 14 7 17 3 4 9 5 12 2 2 -3 -1 -11 -7 -17z
m-222 -14 c0 -14 -12 -19 -23 -8 -9 9 4 35 14 28 5 -3 9 -12 9 -20z m113 -29
c8 -18 -11 -31 -25 -17 -11 11 -3 32 12 32 4 0 10 -7 13 -15z m27 -44 c0 -5
-9 -11 -20 -14 -22 -6 -28 8 -7 16 19 8 27 8 27 -2z m169 -72 c2 -34 -1 -40
-14 -36 -8 4 -15 2 -15 -3 0 -6 -4 -10 -10 -10 -18 0 -11 68 8 79 26 16 28 14
31 -30z m-369 17 c0 -15 -18 -31 -26 -23 -7 7 7 37 17 37 5 0 9 -6 9 -14z
m247 -13 c-7 -44 -19 -73 -28 -73 -11 0 -12 14 -1 24 8 8 9 14 11 51 0 14 6
25 12 25 5 0 8 -12 6 -27z m42 -5 c-5 -18 -9 -34 -9 -35 0 -2 -5 -3 -11 -3
-11 0 -3 37 13 58 16 19 17 15 7 -20z m-109 -18 c0 -11 -4 -20 -9 -20 -14 0
-23 18 -16 30 10 17 25 11 25 -10z m380 16 c0 -3 -4 -8 -10 -11 -5 -3 -10 -1
-10 4 0 6 5 11 10 11 6 0 10 -2 10 -4z m120 -6 c0 -5 -2 -10 -4 -10 -3 0 -8 5
-11 10 -3 6 -1 10 4 10 6 0 11 -4 11 -10z m-795 -10 c3 -5 1 -10 -4 -10 -6 0
-11 5 -11 10 0 6 2 10 4 10 3 0 8 -4 11 -10z m610 -27 c-5 -11 -9 -13 -12 -6
-2 7 -11 9 -19 6 -8 -3 -14 0 -14 6 0 6 7 11 15 11 8 0 15 5 15 12 0 9 3 9 11
1 7 -7 8 -19 4 -30z m-191 -45 c-5 -76 -17 -104 -34 -78 -16 25 -12 63 5 56
12 -4 15 4 15 44 0 28 4 50 9 50 6 0 8 -30 5 -72z m-142 12 c-3 -31 -11 -38
-22 -20 -16 25 -12 52 8 48 11 -3 16 -12 14 -28z m418 9 c0 -6 -4 -7 -10 -4
-5 3 -10 11 -10 16 0 6 5 7 10 4 6 -3 10 -11 10 -16z m-345 -19 c3 -5 1 -10
-4 -10 -6 0 -11 5 -11 10 0 6 2 10 4 10 3 0 8 -4 11 -10z m-230 -28 c0 -18
-20 -15 -23 4 -3 10 1 15 10 12 7 -3 13 -10 13 -16z m620 -61 c-6 -26 -9 -30
-21 -20 -16 13 -19 44 -4 34 6 -3 10 4 10 16 0 17 3 20 11 12 7 -7 8 -24 4
-42z m-465 19 c0 -5 -4 -10 -10 -10 -5 0 -10 5 -10 10 0 6 5 10 10 10 6 0 10
-4 10 -10z m514 -66 c10 -25 7 -34 -9 -28 -11 5 -8 -6 10 -37 28 -50 32 -79
10 -79 -8 0 -15 5 -15 11 0 8 -5 8 -15 -1 -13 -11 -15 -8 -17 16 0 16 -1 37 0
47 1 9 -3 17 -9 17 -14 0 -2 52 14 62 18 11 24 10 31 -8z m-114 -19 c0 -8 -4
-15 -10 -15 -5 0 -10 7 -10 15 0 8 5 15 10 15 6 0 10 -7 10 -15z m48 -63 c2
-7 -3 -12 -12 -12 -9 0 -16 7 -16 16 0 17 22 14 28 -4z m-370 -4 c-6 -18 -28
-21 -28 -4 0 9 7 16 16 16 9 0 14 -5 12 -12z m50 -45 c-2 -10 -10 -17 -17 -15
-9 2 -12 -5 -9 -23 4 -16 1 -24 -6 -22 -19 6 -19 38 1 57 23 24 36 25 31 3z
m359 -40 c8 -6 12 -16 9 -21 -3 -6 -2 -12 4 -14 13 -4 25 -68 12 -68 -5 0 -13
11 -16 25 -4 14 -10 25 -15 25 -14 0 -34 69 -25 88 6 15 8 15 11 -3 3 -11 12
-25 20 -32z m-347 -53 c0 -5 -4 -10 -10 -10 -5 0 -10 5 -10 10 0 6 5 10 10 10
6 0 10 -4 10 -10z m30 -16 c0 -8 -4 -12 -10 -9 -6 4 -10 -6 -10 -23 0 -36 -8
-45 -26 -27 -16 16 -19 29 -4 20 6 -3 10 1 10 11 0 9 8 23 18 30 22 17 22 17
22 -2z m257 -76 c-3 -7 -5 -2 -5 12 0 14 2 19 5 13 2 -7 2 -19 0 -25z m-17 12
c0 -5 -4 -10 -10 -10 -5 0 -10 5 -10 10 0 6 5 10 10 10 6 0 10 -4 10 -10z
m-330 -55 c0 -8 -4 -15 -10 -15 -5 0 -10 7 -10 15 0 8 5 15 10 15 6 0 10 -7
10 -15z m230 5 c0 -5 -4 -10 -10 -10 -5 0 -10 5 -10 10 0 6 5 10 10 10 6 0 10
-4 10 -10z m-60 -135 c0 -8 -4 -15 -10 -15 -5 0 -10 7 -10 15 0 8 5 15 10 15
6 0 10 -7 10 -15z m250 -30 c0 -8 -4 -15 -10 -15 -5 0 -10 7 -10 15 0 8 5 15
10 15 6 0 10 -7 10 -15z m10 -71 c0 -8 -4 -12 -10 -9 -5 3 -10 13 -10 21 0 8
5 12 10 9 6 -3 10 -13 10 -21z m-190 -49 c0 -8 -4 -15 -10 -15 -5 0 -10 7 -10
15 0 8 5 15 10 15 6 0 10 -7 10 -15z m170 -130 c0 -8 -4 -15 -10 -15 -5 0 -10
7 -10 15 0 8 5 15 10 15 6 0 10 -7 10 -15z m-40 -160 c0 -8 -4 -15 -10 -15 -5
0 -10 7 -10 15 0 8 5 15 10 15 6 0 10 -7 10 -15z m60 -150 c0 -8 -4 -15 -10
-15 -5 0 -10 7 -10 15 0 8 5 15 10 15 6 0 10 -7 10 -15z"/>
<path d="M4200 4589 c0 -5 5 -7 10 -4 6 3 10 8 10 11 0 2 -4 4 -10 4 -5 0 -10
-5 -10 -11z"/>
<path d="M37 4468 c-4 -13 -4 -36 -1 -51 3 -22 1 -27 -15 -27 -19 0 -20 -7
-19 -120 1 -66 5 -120 9 -120 8 0 29 63 29 87 0 6 6 18 14 25 7 8 16 27 18 44
3 16 3 23 1 17 -3 -7 -11 -13 -18 -13 -7 0 -20 -3 -29 -6 -10 -4 -16 -1 -16 9
0 19 32 77 43 77 10 0 9 72 -2 88 -6 11 -10 8 -14 -10z"/>
<path d="M70 4460 c0 -5 5 -10 11 -10 5 0 7 5 4 10 -3 6 -8 10 -11 10 -2 0 -4
-4 -4 -10z"/>
<path d="M4523 4413 c-15 -6 -17 -33 -3 -33 5 0 12 -11 16 -25 10 -40 23 -29
20 17 -3 42 -10 51 -33 41z"/>
<path d="M853 4333 c-7 -3 -13 -13 -13 -23 0 -10 -5 -20 -11 -22 -7 -2 -7 -11
0 -28 9 -24 10 -24 10 -2 1 12 6 22 12 22 5 0 8 4 5 9 -9 14 20 21 34 8 10
-10 10 -7 1 10 -13 26 -22 32 -38 26z"/>
<path d="M4234 4326 c-3 -7 4 -30 14 -51 18 -32 21 -34 27 -16 3 11 -1 34 -10
51 -17 33 -23 37 -31 16z"/>
<path d="M4301 4314 c0 -11 3 -14 6 -6 3 7 2 16 -1 19 -3 4 -6 -2 -5 -13z"/>
<path d="M4963 4277 c-3 -5 -1 -12 4 -16 6 -3 17 -19 26 -36 l16 -30 1 27 c0
15 -5 30 -10 33 -8 5 -7 11 0 20 9 11 7 14 -10 12 -12 -1 -24 -5 -27 -10z"/>
<path d="M853 4233 c-15 -5 -17 -23 -4 -23 5 0 11 7 15 15 3 8 4 15 3 14 -1 0
-8 -3 -14 -6z"/>
<path d="M4230 4236 c0 -2 7 -9 15 -16 9 -7 15 -8 15 -2 0 5 -7 12 -15 16 -8
3 -15 4 -15 2z"/>
<path d="M605 4129 c-4 -6 -5 -12 -2 -15 2 -3 7 2 10 11 7 17 1 20 -8 4z"/>
<path d="M4491 4124 c0 -11 3 -14 6 -6 3 7 2 16 -1 19 -3 4 -6 -2 -5 -13z"/>
<path d="M1 4114 c0 -11 3 -14 6 -6 3 7 2 16 -1 19 -3 4 -6 -2 -5 -13z"/>
<path d="M4490 4088 c0 -9 5 -20 10 -23 13 -8 13 5 0 25 -8 13 -10 13 -10 -2z"/>
<path d="M4483 3993 c0 -16 1 -20 4 -10 2 9 9 17 14 17 6 0 7 5 4 10 -11 18
-21 10 -22 -17z"/>
<path d="M576 3965 c-3 -8 -13 -15 -21 -15 -27 0 -13 -35 15 -38 22 -2 25 1
26 33 1 36 -9 47 -20 20z"/>
<path d="M4504 3968 c-4 -7 -2 -14 4 -16 9 -3 9 -9 2 -23 -9 -16 -7 -19 12
-19 37 0 53 14 34 31 -41 37 -45 39 -52 27z"/>
<path d="M795 3961 c-3 -5 -1 -12 5 -16 5 -3 10 1 10 9 0 18 -6 21 -15 7z"/>
<path d="M590 3890 c-8 -5 -12 -11 -9 -14 2 -3 11 -1 19 4 8 5 12 11 9 14 -2
3 -11 1 -19 -4z"/>
<path d="M4490 3886 c0 -2 7 -6 15 -10 8 -3 15 -1 15 4 0 6 -7 10 -15 10 -8 0
-15 -2 -15 -4z"/>
<path d="M4855 3880 c-3 -6 1 -17 9 -26 9 -8 16 -22 16 -30 0 -8 4 -14 9 -14
5 0 8 18 7 40 0 31 -5 40 -18 40 -9 0 -20 -5 -23 -10z"/>
<path d="M271 3844 c0 -11 3 -14 6 -6 3 7 2 16 -1 19 -3 4 -6 -2 -5 -13z"/>
<path d="M4735 3820 c-3 -5 -1 -10 4 -10 6 0 11 5 11 10 0 6 -2 10 -4 10 -3 0
-8 -4 -11 -10z"/>
<path d="M760 3802 c0 -10 6 -19 14 -19 8 0 11 8 8 19 -2 10 -8 18 -13 18 -5
0 -9 -8 -9 -18z"/>
<path d="M4330 3801 c0 -6 4 -13 10 -16 6 -3 7 1 4 9 -7 18 -14 21 -14 7z"/>
<path d="M665 3759 c-4 -6 -5 -12 -2 -15 2 -3 7 2 10 11 7 17 1 20 -8 4z"/>
<path d="M660 3720 c0 -6 7 -10 15 -10 8 0 15 2 15 4 0 2 -7 6 -15 10 -8 3
-15 1 -15 -4z"/>
<path d="M4420 3720 c-13 -8 -12 -10 3 -10 9 0 17 5 17 10 0 12 -1 12 -20 0z"/>
<path d="M4365 3700 c-3 -5 -2 -10 4 -10 5 0 12 -8 14 -17 3 -10 4 -6 4 10 -1
27 -11 35 -22 17z"/>
<path d="M772 3670 c-14 -24 -15 -59 -2 -80 8 -12 10 -12 10 5 1 11 3 37 5 58
5 43 4 44 -13 17z"/>
<path d="M4442 3670 c-8 -13 -10 -34 -6 -55 4 -21 2 -35 -4 -35 -5 0 -12 -8
-14 -18 -4 -13 2 -18 23 -18 16 -1 30 5 34 13 3 10 1 13 -9 10 -10 -4 -12 0
-9 14 3 10 12 19 19 19 8 0 14 9 14 20 0 11 -4 20 -8 20 -5 0 -8 10 -8 21 1
29 -16 34 -32 9z"/>
<path d="M4370 3621 c0 -10 28 -41 36 -41 12 0 1 27 -16 38 -11 7 -20 8 -20 3z"/>
<path d="M757 3569 c7 -7 15 -10 18 -7 3 3 -2 9 -12 12 -14 6 -15 5 -6 -5z"/>
<path d="M590 3530 c0 -6 7 -10 15 -10 8 0 15 2 15 4 0 2 -7 6 -15 10 -8 3
-15 1 -15 -4z"/>
<path d="M4438 3534 c-4 -3 -1 -13 7 -21 20 -19 19 -33 -1 -33 -11 0 -14 -5
-10 -16 4 -9 1 -24 -6 -32 -11 -13 -11 -14 0 -8 7 4 19 2 27 -4 8 -7 15 -9 15
-4 0 5 4 2 9 -5 6 -9 6 -22 0 -32 -5 -11 -5 -26 0 -41 8 -18 10 -19 10 -5 1
26 36 17 36 -8 0 -13 7 -19 18 -19 20 2 21 -1 7 -26 -6 -10 -6 -21 -1 -24 4
-3 4 -24 -2 -46 -9 -34 -9 -43 5 -57 16 -15 17 -15 11 5 -3 13 -1 22 6 22 6 0
11 -8 11 -17 0 -15 2 -16 10 -3 6 10 10 11 10 3 0 -19 -4 -28 -11 -26 -4 1 -9
-7 -12 -17 -3 -11 -1 -20 4 -20 4 0 7 -6 5 -12 -1 -7 -1 -10 1 -5 3 4 13 7 22
7 13 0 20 -13 28 -54 5 -30 6 -53 1 -50 -13 8 -9 -13 5 -24 7 -7 12 -29 11
-52 -1 -22 1 -39 4 -36 2 3 13 -5 24 -17 11 -12 16 -16 13 -8 -6 10 -2 12 16
7 13 -3 18 -3 12 0 -7 3 -13 14 -13 25 0 13 -6 19 -16 17 -17 -3 -19 3 -31 73
-4 32 -2 38 16 44 13 4 21 15 21 30 0 13 3 31 7 41 4 12 3 15 -5 10 -7 -4 -12
-1 -12 8 0 8 6 16 13 19 8 3 6 13 -10 35 -13 17 -23 37 -23 43 0 7 -3 9 -7 5
-4 -4 -8 -16 -8 -26 0 -35 -20 -26 -26 12 -6 41 2 64 20 54 14 -9 14 0 -1 24
-10 15 -10 22 -1 31 9 9 17 7 32 -12 l21 -24 -6 35 c-4 19 -13 40 -22 47 -10
8 -13 22 -9 41 3 16 1 34 -6 41 -13 13 -31 15 -22 2 3 -6 -1 -13 -9 -18 -20
-11 -25 -82 -7 -93 9 -5 10 -13 5 -21 -5 -8 -7 -24 -5 -36 4 -35 -22 -19 -47
28 -27 51 -28 65 -2 72 21 5 28 37 9 37 -6 0 -8 -7 -5 -16 4 -10 1 -14 -6 -11
-7 2 -13 12 -14 23 -3 65 -37 107 -60 76 -11 -15 -14 -14 -23 11 -6 16 -8 33
-5 39 4 6 2 8 -4 4 -5 -3 -12 -1 -14 5 -2 5 -6 7 -10 3z m22 -74 c0 -5 -2 -10
-4 -10 -3 0 -8 5 -11 10 -3 6 -1 10 4 10 6 0 11 -4 11 -10z m66 -17 c-10 -10
-19 5 -10 18 6 11 8 11 12 0 2 -7 1 -15 -2 -18z m11 -40 c2 -6 -3 -13 -12 -16
-10 -5 -15 0 -15 14 0 21 21 22 27 2z m-17 -39 c0 -2 -7 -4 -15 -4 -8 0 -15 4
-15 10 0 5 7 7 15 4 8 -4 15 -8 15 -10z"/>
<path d="M4495 3530 c-3 -5 -1 -10 4 -10 6 0 11 5 11 10 0 6 -2 10 -4 10 -3 0
-8 -4 -11 -10z"/>
<path d="M4640 3469 c0 -5 5 -7 10 -4 6 3 10 8 10 11 0 2 -4 4 -10 4 -5 0 -10
-5 -10 -11z"/>
<path d="M453 3433 c-7 -15 -13 -39 -13 -54 0 -15 -6 -29 -14 -32 -15 -6 -28
-67 -13 -67 5 0 11 9 14 20 4 16 8 18 19 9 16 -13 19 -49 4 -49 -5 0 -10 -4
-10 -9 0 -18 35 1 47 25 6 13 7 22 3 19 -5 -3 -12 0 -16 6 -3 6 0 15 7 20 17
10 19 89 2 89 -6 0 -13 11 -15 25 l-3 25 -12 -27z"/>
<path d="M40 3439 c0 -5 5 -7 10 -4 6 3 10 8 10 11 0 2 -4 4 -10 4 -5 0 -10
-5 -10 -11z"/>
<path d="M7 3408 c-7 -39 -5 -78 4 -78 8 0 21 55 21 85 -1 21 -21 15 -25 -7z"/>
<path d="M4714 3409 c2 -9 0 -21 -6 -27 -7 -7 -4 -17 11 -33 19 -20 21 -21 27
-5 4 10 3 21 -2 25 -5 3 -15 17 -22 31 -7 14 -11 18 -8 9z"/>
<path d="M4750 3325 c0 -9 5 -15 11 -13 6 2 11 8 11 13 0 5 -5 11 -11 13 -6 2
-11 -4 -11 -13z"/>
<path d="M4512 3250 c0 -14 2 -19 5 -12 2 6 2 18 0 25 -3 6 -5 1 -5 -13z"/>
<path d="M4717 3209 c3 -11 11 -18 18 -15 6 2 18 1 25 -4 18 -11 5 -41 -15
-34 -9 4 -15 1 -15 -8 0 -8 9 -14 21 -14 12 1 24 -5 27 -13 3 -10 -1 -12 -17
-8 -16 4 -21 1 -21 -14 0 -13 5 -17 17 -12 10 4 14 2 9 -5 -3 -6 -2 -13 3 -17
33 -20 27 109 -7 132 -9 7 -22 17 -29 23 -18 15 -22 12 -16 -11z"/>
<path d="M4880 3189 c0 -5 5 -7 10 -4 6 3 10 8 10 11 0 2 -4 4 -10 4 -5 0 -10
-5 -10 -11z"/>
<path d="M4873 3157 c5 -14 2 -20 -12 -24 -21 -5 -18 -43 5 -43 20 0 28 -21
13 -31 -8 -5 -9 -9 -4 -9 35 0 42 74 10 106 -18 18 -19 18 -12 1z"/>
<path d="M4805 3110 c3 -5 10 -10 16 -10 5 0 9 5 9 10 0 6 -7 10 -16 10 -8 0
-12 -4 -9 -10z"/>
<path d="M4831 3074 c0 -11 3 -14 6 -6 3 7 2 16 -1 19 -3 4 -6 -2 -5 -13z"/>
<path d="M4595 3060 c-3 -5 1 -10 10 -10 9 0 13 5 10 10 -3 6 -8 10 -10 10 -2
0 -7 -4 -10 -10z"/>
<path d="M4830 3030 c0 -5 7 -7 15 -4 8 4 15 8 15 10 0 2 -7 4 -15 4 -8 0 -15
-4 -15 -10z"/>
<path d="M528 2993 c7 -3 16 -2 19 1 4 3 -2 6 -13 5 -11 0 -14 -3 -6 -6z"/>
<path d="M4830 2985 c0 -8 -6 -15 -12 -15 -14 0 -18 -66 -6 -86 4 -6 5 -33 3
-60 -4 -41 -2 -46 8 -33 7 9 21 19 32 22 18 4 18 5 2 6 -21 1 -21 42 0 48 7 3
10 -4 7 -19 -3 -17 0 -14 13 10 17 32 17 35 0 47 -10 7 -17 26 -17 48 0 22 -6
37 -15 41 -9 3 -15 0 -15 -9z"/>
<path d="M4680 2980 c-13 -8 -12 -10 4 -10 12 0 16 -5 12 -16 -3 -8 1 -22 9
-30 13 -14 15 -12 12 16 -5 38 -17 52 -37 40z"/>
<path d="M4731 2974 c0 -11 3 -14 6 -6 3 7 2 16 -1 19 -3 4 -6 -2 -5 -13z"/>
<path d="M4906 2953 c-5 -17 -3 -29 3 -31 6 -2 11 -10 11 -18 0 -9 5 -12 10
-9 6 3 13 -1 16 -9 8 -20 24 -21 24 -1 0 8 -5 15 -10 15 -6 0 -19 18 -29 41
l-18 40 -7 -28z"/>
<path d="M4770 2944 c0 -8 -4 -12 -10 -9 -5 3 -10 1 -10 -4 0 -6 7 -11 15 -11
8 0 15 9 15 20 0 11 -2 20 -5 20 -3 0 -5 -7 -5 -16z"/>
<path d="M4633 2905 c-3 -9 -3 -18 -1 -21 3 -3 8 4 11 16 6 23 -1 27 -10 5z"/>
<path d="M4656 2847 c3 -10 9 -15 12 -12 3 3 0 11 -7 18 -10 9 -11 8 -5 -6z"/>
<path d="M4900 2841 c0 -12 6 -21 14 -21 21 0 31 -21 15 -31 -12 -7 -11 -9 1
-9 8 0 22 5 30 10 9 6 10 10 3 10 -6 0 -13 12 -15 28 -4 34 -48 47 -48 13z"/>
<path d="M440 2820 c0 -5 9 -14 20 -20 11 -6 20 -9 20 -8 0 2 -9 11 -20 21
-11 9 -20 13 -20 7z"/>
<path d="M4752 2814 c-15 -16 -10 -44 8 -44 5 0 10 14 10 30 0 34 0 35 -18 14z"/>
<path d="M4881 2804 c0 -11 3 -14 6 -6 3 7 2 16 -1 19 -3 4 -6 -2 -5 -13z"/>
<path d="M5004 2779 c4 -13 10 -34 13 -46 3 -13 12 -23 19 -23 8 0 14 -11 15
-27 0 -17 3 -22 6 -13 3 8 11 18 17 22 6 4 4 9 -7 14 -9 3 -17 17 -17 30 0 12
-6 27 -14 31 -8 4 -15 12 -15 18 0 5 -5 11 -12 14 -8 2 -10 -3 -5 -20z"/>
<path d="M426 2758 c-7 -29 -8 -53 0 -46 7 8 17 68 11 68 -3 0 -7 -10 -11 -22z"/>
<path d="M0 2756 c0 -9 5 -16 10 -16 6 0 10 4 10 9 0 6 -4 13 -10 16 -5 3 -10
-1 -10 -9z"/>
<path d="M4885 2760 c-3 -5 -1 -10 4 -10 6 0 11 5 11 10 0 6 -2 10 -4 10 -3 0
-8 -4 -11 -10z"/>
<path d="M4880 2715 c0 -8 -4 -15 -9 -15 -16 0 -19 -74 -4 -92 10 -11 11 -18
4 -23 -6 -3 -8 -17 -5 -31 3 -13 2 -24 -2 -24 -5 0 -9 -11 -9 -25 0 -14 5 -23
10 -22 6 2 9 13 7 24 -2 14 4 22 20 27 21 6 21 7 5 17 -13 8 -15 14 -7 30 6
10 15 19 21 19 6 0 8 -4 5 -9 -6 -10 24 -25 32 -16 3 3 0 5 -7 5 -7 0 -9 9 -5
25 4 18 1 27 -10 31 -11 4 -16 18 -16 44 0 24 -5 40 -15 44 -9 3 -15 0 -15 -9z"/>
<path d="M411 2693 c-1 -6 -9 -9 -20 -6 -11 3 -21 -2 -24 -12 -5 -11 -2 -15 9
-13 12 2 17 -6 20 -26 4 -37 7 -39 23 -14 7 11 8 17 2 13 -6 -3 -11 -2 -11 4
0 5 6 11 12 13 10 4 10 10 1 29 -6 13 -12 19 -12 12z"/>
<path d="M4815 2680 c-3 -5 -1 -10 4 -10 6 0 11 5 11 10 0 6 -2 10 -4 10 -3 0
-8 -4 -11 -10z"/>
<path d="M5107 2670 c-3 -11 -1 -20 4 -20 5 0 9 9 9 20 0 11 -2 20 -4 20 -2 0
-6 -9 -9 -20z"/>
<path d="M316 2666 c21 -15 30 -14 19 3 -3 6 -14 11 -23 11 -13 0 -13 -2 4
-14z"/>
<path d="M4761 2664 c0 -11 3 -14 6 -6 3 7 2 16 -1 19 -3 4 -6 -2 -5 -13z"/>
<path d="M4950 2668 c1 -15 30 -56 30 -42 0 5 7 1 15 -10 7 -10 18 -15 24 -12
5 4 -1 17 -15 31 -13 13 -24 29 -24 35 0 5 -7 10 -15 10 -8 0 -15 -6 -15 -12z"/>
<path d="M4800 2656 c0 -2 7 -6 15 -10 8 -3 15 -1 15 4 0 6 -7 10 -15 10 -8 0
-15 -2 -15 -4z"/>
<path d="M5110 2630 c0 -5 -7 -10 -16 -10 -11 0 -14 -5 -10 -16 3 -9 6 -22 6
-30 0 -8 6 -14 13 -14 9 0 14 14 15 40 1 22 0 40 -3 40 -3 0 -5 -4 -5 -10z"/>
<path d="M4980 2575 c0 -8 4 -15 10 -15 5 0 7 7 4 15 -4 8 -8 15 -10 15 -2 0
-4 -7 -4 -15z"/>
<path d="M4811 2548 c-1 -9 -6 -18 -13 -20 -8 -3 -8 -9 0 -23 10 -18 11 -18
17 7 4 15 5 33 2 40 -4 9 -6 7 -6 -4z"/>
<path d="M4926 2488 c16 -52 24 -69 33 -64 16 11 17 51 1 66 -27 25 -42 24
-34 -2z"/>
<path d="M4991 2494 c0 -11 3 -14 6 -6 3 7 2 16 -1 19 -3 4 -6 -2 -5 -13z"/>
<path d="M5034 2485 c-13 -10 -16 -17 -7 -22 7 -5 10 -26 7 -56 -3 -28 0 -47
6 -47 5 0 10 7 10 15 0 8 5 15 11 15 8 0 8 5 -1 15 -10 12 -10 18 1 31 12 14
14 14 19 -2 6 -17 8 -17 19 3 9 19 8 25 -11 43 -26 24 -29 24 -54 5z"/>
<path d="M410 2464 c0 -14 4 -23 9 -20 5 3 7 15 4 26 -7 28 -13 25 -13 -6z"/>
<path d="M4810 2459 c0 -5 5 -7 10 -4 6 3 10 8 10 11 0 2 -4 4 -10 4 -5 0 -10
-5 -10 -11z"/>
<path d="M4799 2411 c-25 -25 -32 -89 -11 -100 13 -8 14 -13 5 -22 -6 -6 -9
-18 -6 -25 3 -8 0 -20 -6 -28 -6 -7 -8 -16 -4 -20 9 -9 14 -35 12 -71 -5 -123
-4 -148 11 -152 13 -4 13 -3 0 6 -12 8 -12 13 0 36 14 25 14 26 22 6 4 -12 11
-21 16 -21 14 0 5 63 -11 71 -10 6 -12 19 -7 52 5 37 3 46 -12 56 -18 11 -15
42 4 38 6 -1 13 4 16 12 3 8 0 11 -7 7 -13 -8 -14 13 -2 33 8 12 12 12 26 -2
9 -10 18 -17 19 -17 10 0 -9 57 -21 67 -11 8 -14 22 -10 42 8 37 -11 55 -34
32z"/>
<path d="M4711 2394 c0 -11 3 -14 6 -6 3 7 2 16 -1 19 -3 4 -6 -2 -5 -13z"/>
<path d="M4967 2388 c-16 -17 -17 -21 -4 -31 8 -7 17 -19 20 -27 3 -8 6 6 6
33 1 26 0 47 -1 46 -2 0 -11 -10 -21 -21z"/>
<path d="M5101 2384 c0 -11 3 -14 6 -6 3 7 2 16 -1 19 -3 4 -6 -2 -5 -13z"/>
<path d="M4747 2373 c5 -13 3 -15 -13 -9 -14 5 -16 4 -7 -5 6 -6 16 -8 22 -5
14 9 15 36 1 36 -5 0 -6 -8 -3 -17z"/>
<path d="M4876 2374 c-7 -17 29 -61 38 -46 6 10 -15 62 -25 62 -4 0 -10 -7
-13 -16z"/>
<path d="M5100 2334 c0 -8 5 -12 10 -9 6 4 8 11 5 16 -9 14 -15 11 -15 -7z"/>
<path d="M391 2285 c-9 -27 -10 -40 -2 -48 8 -8 11 -7 11 5 0 9 4 18 10 20 6
2 7 15 2 31 l-7 28 -14 -36z"/>
<path d="M5100 2291 c0 -6 -7 -11 -15 -11 -8 0 -12 -6 -9 -14 3 -8 1 -23 -5
-33 -10 -17 -11 -16 -17 5 -3 12 -11 22 -16 22 -5 0 -7 -4 -3 -9 3 -5 -4 -13
-16 -16 -19 -6 -19 -8 -5 -24 9 -10 13 -21 9 -25 -4 -4 -8 -22 -10 -41 -1 -26
2 -33 13 -28 8 3 14 10 15 17 1 6 2 22 2 35 1 13 8 26 15 28 8 3 10 -1 5 -14
-4 -10 6 -4 25 15 32 33 44 84 22 97 -5 3 -10 1 -10 -4z"/>
<path d="M5001 2274 c0 -11 3 -14 6 -6 3 7 2 16 -1 19 -3 4 -6 -2 -5 -13z"/>
<path d="M4905 2270 c3 -5 8 -10 11 -10 2 0 4 5 4 10 0 6 -5 10 -11 10 -5 0
-7 -4 -4 -10z"/>
<path d="M4736 2244 c-8 -20 -8 -24 2 -24 4 0 8 9 9 20 2 24 -3 26 -11 4z"/>
<path d="M4970 2240 c0 -5 5 -10 11 -10 5 0 7 5 4 10 -3 6 -8 10 -11 10 -2 0
-4 -4 -4 -10z"/>
<path d="M4910 2231 c0 -5 7 -22 15 -37 15 -28 15 -29 21 -6 4 12 11 22 18 22
6 1 0 7 -14 15 -29 17 -40 18 -40 6z"/>
<path d="M1 2190 c0 -29 1 -32 10 -17 7 11 7 23 0 35 -9 14 -10 11 -10 -18z"/>
<path d="M5102 2164 c-1 -15 2 -22 8 -19 12 7 13 32 2 39 -4 2 -9 -7 -10 -20z"/>
<path d="M4866 2134 c-5 -18 -3 -30 3 -32 6 -2 11 -11 11 -20 0 -12 3 -13 11
-5 9 9 8 21 -3 49 l-15 37 -7 -29z"/>
<path d="M4961 2148 c0 -9 -7 -18 -13 -21 -10 -4 -10 -7 -1 -18 17 -18 25 -6
20 28 -2 15 -5 21 -6 11z"/>
<path d="M5080 2046 c0 -9 -4 -16 -10 -16 -14 0 -13 -57 2 -66 14 -9 38 23 38
52 0 12 -7 27 -15 34 -12 10 -15 10 -15 -4z"/>
<path d="M4997 2017 c-3 -7 3 -13 14 -14 12 -1 16 3 12 13 -6 18 -19 18 -26 1z"/>
<path d="M4926 1995 c7 -17 34 -21 34 -4 0 5 -4 7 -10 4 -5 -3 -10 -1 -10 4 0
6 -4 11 -10 11 -5 0 -7 -7 -4 -15z"/>
<path d="M4840 1996 c0 -9 26 -36 34 -36 3 0 6 8 6 17 0 9 -3 13 -7 10 -3 -4
-12 -2 -20 4 -7 6 -13 8 -13 5z"/>
</g>
</svg>
